<svg width="269" height="327" viewBox="0 0 269 327" fill="none" xmlns="http://www.w3.org/2000/svg">
<g clip-path="url(#clip0_1_3)">
<g filter="url(#filter0_d_1_3)">
<path d="M124.194 229.42L164.194 229.412C166.942 229.411 169.653 230.043 172.118 231.258C174.583 232.473 176.736 234.238 178.409 236.418C180.083 238.598 181.232 241.134 181.769 243.829C182.306 246.525 182.215 249.307 181.504 251.962C180.794 254.617 179.482 257.072 177.67 259.139C175.859 261.205 173.596 262.828 171.057 263.88C168.518 264.932 165.771 265.386 163.029 265.207C160.287 265.028 157.622 264.22 155.242 262.846L126.66 246.352L128.659 242.888L120.847 242.42L125.16 248.951L127.16 245.486L155.742 261.98C157.989 263.277 160.505 264.04 163.094 264.209C165.684 264.378 168.277 263.949 170.674 262.956C173.071 261.962 175.208 260.431 176.918 258.48C178.629 256.528 179.867 254.21 180.538 251.703C181.209 249.197 181.295 246.569 180.788 244.025C180.281 241.48 179.196 239.086 177.616 237.027C176.036 234.969 174.004 233.302 171.676 232.155C169.349 231.007 166.789 230.411 164.194 230.412L124.194 230.42L124.194 229.42Z" fill="#A5ABB6"/>
<path d="M181.553 269.707C181.266 269.666 181.015 269.742 180.798 269.935C180.582 270.128 180.428 270.394 180.337 270.735C180.27 270.984 180.252 271.212 180.283 271.42C180.314 271.626 180.386 271.801 180.499 271.943C180.612 272.083 180.759 272.177 180.938 272.225C181.088 272.265 181.226 272.264 181.353 272.221C181.479 272.177 181.593 272.107 181.695 272.013C181.794 271.918 181.884 271.815 181.963 271.702C182.04 271.59 182.106 271.485 182.162 271.388L182.468 270.858C182.546 270.722 182.643 270.574 182.758 270.412C182.874 270.249 183.013 270.101 183.174 269.968C183.334 269.832 183.519 269.735 183.729 269.675C183.939 269.616 184.176 269.621 184.439 269.692C184.743 269.773 184.996 269.926 185.199 270.151C185.402 270.374 185.535 270.657 185.598 270.999C185.662 271.34 185.636 271.726 185.52 272.158C185.412 272.56 185.254 272.891 185.045 273.151C184.837 273.409 184.594 273.591 184.317 273.697C184.04 273.801 183.745 273.823 183.432 273.763L183.62 273.061C183.837 273.099 184.032 273.075 184.204 272.988C184.375 272.898 184.52 272.766 184.639 272.592C184.757 272.416 184.846 272.216 184.906 271.993C184.975 271.733 184.995 271.489 184.967 271.26C184.936 271.03 184.861 270.834 184.741 270.673C184.62 270.511 184.457 270.403 184.252 270.348C184.065 270.298 183.9 270.309 183.755 270.382C183.61 270.455 183.478 270.567 183.359 270.717C183.24 270.868 183.127 271.035 183.019 271.218L182.636 271.856C182.393 272.261 182.119 272.561 181.817 272.754C181.514 272.948 181.173 272.994 180.794 272.892C180.48 272.808 180.228 272.65 180.04 272.417C179.85 272.182 179.728 271.902 179.676 271.578C179.622 271.252 179.643 270.91 179.739 270.551C179.836 270.189 179.987 269.884 180.193 269.637C180.396 269.39 180.631 269.214 180.899 269.109C181.166 269.002 181.443 268.982 181.729 269.049L181.553 269.707ZM180.827 266.796L186.447 268.301L186.265 268.982L180.644 267.477L180.827 266.796ZM181.192 265.432L181.409 264.619L186.586 263.958L186.604 263.893L182.45 260.734L182.667 259.921L188.288 261.426L188.117 262.063L183.847 260.919L183.832 260.974L187.632 263.874L187.468 264.489L182.727 265.102L182.713 265.156L186.983 266.3L186.812 266.936L181.192 265.432ZM183.215 257.876L188.835 259.381L188.653 260.061L183.033 258.557L183.215 257.876ZM189.2 258.016L183.58 256.511L183.762 255.831L188.779 257.174L189.478 254.561L190.082 254.723L189.2 258.016ZM190.521 253.084L190.33 253.798L185.262 250.229L185.45 249.527L191.623 248.968L191.432 249.681L186.251 250.094L186.239 250.138L190.521 253.084ZM188.396 252.233L189.166 249.357L189.77 249.518L189 252.394L188.396 252.233ZM191.857 248.092L186.237 246.588L186.746 244.689C186.863 244.249 187.035 243.909 187.26 243.668C187.484 243.425 187.744 243.272 188.04 243.206C188.336 243.14 188.649 243.151 188.98 243.24C189.311 243.329 189.587 243.475 189.807 243.679C190.027 243.883 190.172 244.144 190.244 244.463C190.313 244.782 190.29 245.159 190.173 245.594L189.762 247.131L189.147 246.967L189.553 245.452C189.633 245.152 189.654 244.899 189.615 244.692C189.577 244.484 189.488 244.317 189.349 244.192C189.209 244.064 189.026 243.97 188.801 243.91C188.576 243.849 188.368 243.839 188.177 243.878C187.986 243.917 187.821 244.017 187.68 244.177C187.537 244.337 187.425 244.568 187.343 244.872L187.023 246.069L192.04 247.412L191.857 248.092ZM190.041 244.771L192.936 244.064L192.724 244.854L189.835 245.539L190.041 244.771ZM193.936 240.328L194.54 240.49L193.599 244.002L192.996 243.841L193.936 240.328ZM194.263 239.283C194.227 239.418 194.147 239.521 194.024 239.592C193.901 239.663 193.772 239.681 193.637 239.644C193.501 239.608 193.398 239.528 193.327 239.406C193.256 239.283 193.239 239.153 193.275 239.018C193.311 238.883 193.391 238.78 193.514 238.709C193.637 238.638 193.766 238.62 193.901 238.656C193.991 238.68 194.067 238.725 194.13 238.791C194.193 238.855 194.238 238.931 194.263 239.018C194.288 239.103 194.288 239.191 194.263 239.283ZM194.827 237.175C194.791 237.31 194.711 237.414 194.589 237.485C194.466 237.556 194.336 237.573 194.201 237.537C194.066 237.5 193.963 237.421 193.892 237.298C193.821 237.175 193.803 237.046 193.839 236.91C193.876 236.775 193.955 236.672 194.078 236.601C194.201 236.53 194.33 236.513 194.466 236.549C194.555 236.573 194.631 236.618 194.694 236.684C194.757 236.748 194.802 236.823 194.828 236.91C194.852 236.995 194.852 237.084 194.827 237.175ZM195.392 235.067C195.355 235.203 195.276 235.306 195.153 235.377C195.03 235.448 194.901 235.465 194.765 235.429C194.63 235.393 194.527 235.313 194.456 235.19C194.385 235.067 194.367 234.938 194.404 234.803C194.44 234.668 194.519 234.564 194.642 234.493C194.765 234.422 194.894 234.405 195.03 234.441C195.12 234.465 195.196 234.51 195.258 234.576C195.322 234.64 195.366 234.716 195.392 234.803C195.416 234.888 195.416 234.976 195.392 235.067Z" fill="black"/>
<path d="M160.355 77.577L139.455 43.4716C138.019 41.1284 137.141 38.4863 136.889 35.7496C136.638 33.013 137.019 30.2551 138.004 27.6894C138.989 25.1238 140.551 22.819 142.569 20.9535C144.587 19.088 147.007 17.7117 149.642 16.9312C152.277 16.1506 155.056 15.9867 157.765 16.4521C160.473 16.9174 163.039 17.9996 165.262 19.615C167.485 21.2303 169.307 23.3354 170.587 25.7675C171.866 28.1996 172.569 30.8935 172.641 33.6408L173.506 66.6295L169.507 66.7342L173.189 73.6402L176.505 66.5509L172.506 66.6557L171.642 33.667C171.574 31.073 170.91 28.5295 169.702 26.2332C168.494 23.9368 166.773 21.9492 164.674 20.424C162.575 18.8988 160.153 17.877 157.596 17.4376C155.038 16.9982 152.414 17.153 149.926 17.89C147.438 18.627 145.153 19.9264 143.248 21.6878C141.342 23.4492 139.868 25.6253 138.938 28.0478C138.008 30.4703 137.648 33.0742 137.885 35.6581C138.123 38.242 138.951 40.7367 140.307 42.9491L161.208 77.0545L160.355 77.577Z" fill="#A5ABB6"/>
<path d="M131.127 14.736C131.012 14.4696 130.816 14.2946 130.539 14.2109C130.261 14.1273 129.953 14.1354 129.616 14.2355C129.369 14.3087 129.164 14.4126 129.003 14.5474C128.843 14.6816 128.732 14.834 128.67 15.0045C128.61 15.1744 128.606 15.3484 128.659 15.5263C128.703 15.6753 128.776 15.7928 128.879 15.8789C128.983 15.9628 129.101 16.0234 129.235 16.0609C129.368 16.0965 129.503 16.1188 129.64 16.1276C129.776 16.1346 129.9 16.1364 130.012 16.1329L130.623 16.1177C130.78 16.1128 130.957 16.1175 131.155 16.132C131.355 16.1459 131.554 16.1868 131.751 16.2546C131.951 16.3201 132.13 16.4268 132.291 16.5749C132.451 16.7229 132.57 16.9277 132.648 17.1892C132.737 17.4906 132.739 17.7864 132.653 18.0765C132.569 18.3661 132.397 18.6273 132.138 18.8601C131.881 19.0923 131.538 19.2719 131.11 19.3988C130.71 19.5172 130.345 19.5552 130.014 19.5129C129.686 19.47 129.404 19.358 129.168 19.1769C128.935 18.9952 128.762 18.755 128.65 18.4564L129.347 18.2498C129.428 18.4551 129.55 18.6085 129.714 18.7099C129.88 18.809 130.068 18.8639 130.279 18.8746C130.491 18.8829 130.707 18.8543 130.929 18.7887C131.187 18.7123 131.406 18.6019 131.586 18.4576C131.766 18.3115 131.894 18.1453 131.969 17.9591C132.044 17.771 132.051 17.5753 131.991 17.3719C131.936 17.1867 131.839 17.0513 131.701 16.9657C131.563 16.8802 131.399 16.8261 131.209 16.8035C131.018 16.7809 130.817 16.7714 130.605 16.775L129.86 16.7822C129.387 16.786 128.989 16.7094 128.666 16.5522C128.343 16.3951 128.126 16.1286 128.015 15.7527C127.922 15.4403 127.926 15.1429 128.026 14.8605C128.127 14.5757 128.302 14.3263 128.551 14.1124C128.801 13.8961 129.104 13.7352 129.46 13.6298C129.819 13.5233 130.158 13.4931 130.476 13.5392C130.793 13.5834 131.066 13.6921 131.296 13.8653C131.526 14.0379 131.688 14.2635 131.781 14.5423L131.127 14.736ZM133.23 12.596L134.882 18.1745L134.207 18.3746L132.554 12.7961L133.23 12.596ZM134.584 12.1947L135.391 11.9559L138.658 16.0249L138.724 16.0056L139.248 10.8133L140.054 10.5745L141.706 16.1531L141.075 16.3403L139.819 12.1019L139.765 12.118L139.277 16.8728L138.667 17.0536L135.668 13.3316L135.613 13.3477L136.869 17.5861L136.237 17.7733L134.584 12.1947ZM142.084 9.97316L143.736 15.5517L143.061 15.7518L141.408 10.1733L142.084 9.97316ZM145.091 15.1505L143.438 9.57193L144.114 9.37182L145.589 14.3511L148.182 13.583L148.36 14.1822L145.091 15.1505ZM149.986 13.7003L149.278 13.9101L149.674 7.72474L150.371 7.51818L154.072 12.49L153.364 12.6998L150.306 8.49755L150.262 8.51046L149.986 13.7003ZM149.602 11.4437L152.457 10.5981L152.635 11.1973L149.78 12.043L149.602 11.4437ZM154.941 12.2326L153.289 6.65399L155.174 6.09562C155.61 5.96652 155.989 5.935 156.313 6.00107C156.636 6.06532 156.903 6.20647 157.114 6.42453C157.325 6.64258 157.479 6.91595 157.576 7.24464C157.674 7.57332 157.693 7.88469 157.634 8.17872C157.575 8.47276 157.428 8.73357 157.193 8.96115C156.958 9.18691 156.624 9.36381 156.192 9.49184L154.666 9.9437L154.485 9.33354L155.989 8.88813C156.287 8.79991 156.514 8.68532 156.669 8.54437C156.827 8.40287 156.923 8.24012 156.957 8.05611C156.993 7.86974 156.978 7.66488 156.912 7.44152C156.845 7.21816 156.746 7.03532 156.613 6.893C156.48 6.75068 156.308 6.66128 156.098 6.62482C155.887 6.58653 155.631 6.61204 155.329 6.70134L154.142 7.05314L155.617 12.0325L154.941 12.2326ZM156.825 8.94872L158.94 11.048L158.155 11.2804L156.062 9.17465L156.825 8.94872ZM162.648 9.94965L162.825 10.5489L159.339 11.5817L159.161 10.9825L162.648 9.94965ZM163.71 9.68238C163.576 9.72219 163.446 9.70822 163.321 9.64049C163.197 9.57275 163.114 9.4717 163.075 9.33732C163.035 9.20294 163.049 9.07337 163.117 8.94862C163.184 8.82386 163.285 8.74158 163.42 8.70177C163.554 8.66197 163.684 8.67593 163.808 8.74366C163.933 8.8114 164.015 8.91246 164.055 9.04684C164.082 9.13582 164.083 9.22426 164.06 9.31216C164.038 9.39952 163.997 9.47693 163.936 9.54439C163.876 9.60949 163.801 9.65548 163.71 9.68238ZM165.802 9.06269C165.668 9.10249 165.538 9.08853 165.413 9.02079C165.289 8.95306 165.206 8.852 165.167 8.71762C165.127 8.58324 165.141 8.45368 165.208 8.32892C165.276 8.20417 165.377 8.12188 165.512 8.08208C165.646 8.04227 165.776 8.05623 165.9 8.12397C166.025 8.1917 166.107 8.29276 166.147 8.42714C166.174 8.51612 166.175 8.60456 166.152 8.69246C166.13 8.77983 166.089 8.85724 166.028 8.92469C165.968 8.98979 165.893 9.03579 165.802 9.06269ZM167.894 8.44299C167.76 8.4828 167.63 8.46883 167.505 8.4011C167.381 8.33336 167.298 8.23231 167.259 8.09793C167.219 7.96355 167.233 7.83398 167.3 7.70923C167.368 7.58447 167.469 7.50219 167.604 7.46238C167.738 7.42258 167.868 7.43654 167.992 7.50427C168.117 7.57201 168.199 7.67307 168.239 7.80744C168.266 7.89643 168.267 7.98487 168.244 8.07277C168.222 8.16013 168.181 8.23754 168.12 8.305C168.06 8.3701 167.985 8.41609 167.894 8.44299Z" fill="black"/>
<path d="M105.998 253.986L116.111 292.687C116.806 295.346 116.88 298.129 116.327 300.821C115.774 303.513 114.61 306.042 112.923 308.211C111.237 310.381 109.074 312.134 106.601 313.334C104.129 314.535 101.414 315.15 98.6658 315.133C95.9176 315.116 93.2102 314.467 90.753 313.236C88.2958 312.005 86.1547 310.226 84.4952 308.035C82.8358 305.845 81.7025 303.302 81.183 300.603C80.6636 297.904 80.7719 295.122 81.4996 292.472L90.238 260.65L94.0952 261.709L92.5737 254.033L87.3451 259.856L91.2023 260.915L82.4639 292.737C81.7768 295.239 81.6746 297.866 82.165 300.414C82.6555 302.962 83.7255 305.363 85.2923 307.431C86.8592 309.5 88.8808 311.18 91.2009 312.342C93.5209 313.504 96.0772 314.117 98.672 314.133C101.267 314.149 103.83 313.568 106.165 312.435C108.499 311.302 110.541 309.647 112.134 307.598C113.726 305.549 114.826 303.161 115.348 300.62C115.87 298.078 115.8 295.45 115.144 292.94L105.031 254.239L105.998 253.986Z" fill="#A5ABB6"/>
<path d="M81.5081 319.663C81.4758 319.375 81.3389 319.151 81.0975 318.99C80.8561 318.829 80.5592 318.748 80.207 318.746C79.9494 318.744 79.7238 318.785 79.5301 318.867C79.3383 318.949 79.1879 319.063 79.0791 319.208C78.9721 319.353 78.9181 319.518 78.9169 319.704C78.9159 319.859 78.952 319.993 79.0252 320.105C79.1003 320.215 79.1963 320.308 79.3133 320.382C79.4303 320.455 79.553 320.516 79.6815 320.564C79.81 320.61 79.9281 320.648 80.0359 320.677L80.6258 320.839C80.7771 320.88 80.9453 320.936 81.1305 321.007C81.3175 321.079 81.4959 321.175 81.6656 321.298C81.8372 321.418 81.9783 321.572 82.0889 321.76C82.1995 321.949 82.2539 322.179 82.2522 322.452C82.2503 322.766 82.1661 323.05 81.9998 323.303C81.8353 323.555 81.5955 323.756 81.2801 323.903C80.9667 324.051 80.5865 324.123 80.1396 324.121C79.7229 324.118 79.3625 324.049 79.0584 323.912C78.7563 323.776 78.5188 323.587 78.346 323.345C78.1752 323.104 78.0794 322.824 78.0586 322.505L78.7859 322.51C78.8035 322.73 78.8762 322.912 79.0041 323.057C79.1339 323.2 79.298 323.307 79.4964 323.378C79.6968 323.447 79.9124 323.483 80.1435 323.484C80.4124 323.486 80.6542 323.444 80.8687 323.358C81.0833 323.27 81.2536 323.148 81.3795 322.992C81.5055 322.834 81.5692 322.648 81.5705 322.436C81.5717 322.243 81.5187 322.086 81.4115 321.964C81.3043 321.842 81.1628 321.742 80.9872 321.666C80.8115 321.589 80.6216 321.521 80.4174 321.463L79.7028 321.254C79.249 321.121 78.8904 320.932 78.6267 320.688C78.3631 320.444 78.2325 320.126 78.2349 319.734C78.2369 319.408 78.3267 319.124 78.5044 318.883C78.6839 318.64 78.9237 318.452 79.2238 318.319C79.5258 318.185 79.8623 318.119 80.2336 318.121C80.6085 318.123 80.9415 318.193 81.2323 318.329C81.5231 318.463 81.7531 318.647 81.9221 318.879C82.093 319.111 82.1823 319.374 82.1899 319.667L81.5081 319.663ZM84.1414 318.225L84.1053 324.043L83.4008 324.039L83.4368 318.22L84.1414 318.225ZM85.554 318.234L86.3949 318.239L88.3422 323.08L88.4104 323.081L90.4175 318.264L91.2584 318.269L91.2224 324.087L90.5633 324.083L90.5907 319.663L90.5339 319.662L88.6883 324.071L88.052 324.067L86.2612 319.636L86.2044 319.635L86.177 324.056L85.5179 324.052L85.554 318.234ZM93.3756 318.282L93.3395 324.1L92.635 324.096L92.671 318.278L93.3756 318.282ZM94.7521 324.109L94.7882 318.291L95.4927 318.295L95.4605 323.488L98.165 323.505L98.1612 324.13L94.7521 324.109ZM99.8579 324.14L99.1192 324.136L101.292 318.331L102.019 318.336L104.119 324.167L103.381 324.162L101.672 319.254L101.627 319.254L99.8579 324.14ZM100.145 321.869L103.122 321.888L103.118 322.513L100.141 322.494L100.145 321.869ZM105.025 324.172L105.061 318.354L107.027 318.367C107.482 318.369 107.854 318.449 108.145 318.606C108.436 318.762 108.65 318.974 108.789 319.244C108.927 319.514 108.996 319.82 108.993 320.163C108.991 320.506 108.919 320.809 108.778 321.074C108.636 321.338 108.42 321.545 108.129 321.695C107.838 321.842 107.467 321.915 107.017 321.912L105.426 321.902L105.43 321.266L106.998 321.276C107.309 321.277 107.559 321.234 107.749 321.144C107.941 321.054 108.08 320.926 108.166 320.76C108.254 320.592 108.299 320.392 108.3 320.159C108.302 319.926 108.259 319.722 108.173 319.547C108.087 319.372 107.949 319.237 107.758 319.141C107.568 319.043 107.315 318.993 107.001 318.991L105.762 318.984L105.73 324.177L105.025 324.172ZM107.78 321.576L109.196 324.198L108.378 324.193L106.985 321.571L107.78 321.576ZM113.063 324.222L113.059 324.847L109.423 324.825L109.427 324.2L113.063 324.222ZM114.157 324.275C114.017 324.274 113.897 324.223 113.797 324.122C113.697 324.021 113.648 323.9 113.649 323.76C113.65 323.62 113.701 323.5 113.802 323.4C113.903 323.3 114.023 323.251 114.163 323.252C114.304 323.253 114.423 323.304 114.523 323.405C114.623 323.506 114.672 323.626 114.672 323.766C114.671 323.859 114.647 323.944 114.599 324.022C114.553 324.099 114.491 324.161 114.413 324.208C114.337 324.253 114.252 324.275 114.157 324.275ZM116.339 324.288C116.199 324.287 116.079 324.236 115.979 324.135C115.879 324.034 115.83 323.914 115.831 323.774C115.831 323.633 115.882 323.513 115.983 323.414C116.084 323.314 116.205 323.264 116.345 323.265C116.485 323.266 116.605 323.317 116.705 323.418C116.805 323.519 116.854 323.64 116.853 323.78C116.853 323.873 116.829 323.958 116.781 324.035C116.735 324.112 116.673 324.175 116.595 324.221C116.519 324.266 116.433 324.289 116.339 324.288ZM118.521 324.302C118.38 324.301 118.26 324.25 118.161 324.149C118.061 324.048 118.012 323.927 118.012 323.787C118.013 323.647 118.064 323.527 118.165 323.427C118.266 323.327 118.387 323.278 118.527 323.279C118.667 323.28 118.787 323.331 118.887 323.432C118.987 323.533 119.036 323.653 119.035 323.793C119.035 323.886 119.01 323.971 118.962 324.049C118.917 324.126 118.855 324.188 118.777 324.235C118.701 324.28 118.615 324.302 118.521 324.302Z" fill="black"/>
<path d="M190.81 80.2632L218.533 51.4283C220.438 49.4472 222.772 47.9308 225.357 46.9964C227.941 46.062 230.706 45.7347 233.437 46.0398C236.169 46.3449 238.793 47.2741 241.108 48.7557C243.422 50.2373 245.365 52.2315 246.786 54.5841C248.206 56.9366 249.067 59.5844 249.3 62.3226C249.534 65.0609 249.135 67.8162 248.133 70.3754C247.131 72.9346 245.555 75.2291 243.524 77.0814C241.494 78.9337 239.065 80.2941 236.425 81.0574L204.724 90.2235L203.613 86.3809L197.86 91.6875L205.557 93.1055L204.446 89.2629L236.147 80.0968C238.64 79.376 240.933 78.0915 242.85 76.3426C244.767 74.5937 246.256 72.4273 247.202 70.0109C248.147 67.5946 248.525 64.9931 248.304 62.4077C248.083 59.8222 247.271 57.3222 245.93 55.101C244.588 52.8798 242.754 50.9969 240.569 49.598C238.383 48.1991 235.905 47.3216 233.326 47.0336C230.748 46.7456 228.137 47.0546 225.697 47.9368C223.257 48.8191 221.052 50.2508 219.254 52.1213L191.531 80.9563L190.81 80.2632Z" fill="#A5ABB6"/>
<path d="M244.234 36.1144C244.463 35.9364 244.583 35.7026 244.594 35.4128C244.605 35.123 244.519 34.8274 244.337 34.5258C244.204 34.3053 244.052 34.134 243.881 34.0117C243.71 33.891 243.535 33.8221 243.354 33.8051C243.175 33.7897 243.005 33.83 242.847 33.9259C242.714 34.0062 242.618 34.1068 242.561 34.2278C242.506 34.3495 242.477 34.4796 242.475 34.6183C242.474 34.7561 242.486 34.8923 242.513 35.027C242.54 35.1607 242.57 35.2812 242.601 35.3883L242.771 35.9763C242.815 36.1266 242.855 36.2993 242.891 36.4944C242.928 36.6911 242.938 36.8938 242.923 37.1023C242.91 37.3116 242.852 37.5125 242.749 37.705C242.646 37.8976 242.478 38.0644 242.245 38.2054C241.976 38.3679 241.69 38.4442 241.387 38.4344C241.086 38.4261 240.79 38.3261 240.499 38.1343C240.21 37.9442 239.949 37.6578 239.718 37.2752C239.503 36.9185 239.374 36.5749 239.332 36.2443C239.29 35.9154 239.327 35.6142 239.443 35.3407C239.56 35.0689 239.748 34.841 240.009 34.657L240.385 35.2796C240.207 35.4094 240.089 35.5666 240.033 35.7512C239.979 35.9365 239.973 36.1324 240.016 36.3389C240.061 36.546 240.144 36.7484 240.263 36.9462C240.402 37.1764 240.564 37.3606 240.749 37.4988C240.936 37.636 241.129 37.7174 241.328 37.7432C241.529 37.7679 241.72 37.7255 241.902 37.6158C242.067 37.516 242.174 37.3885 242.222 37.2334C242.27 37.0784 242.281 36.9059 242.255 36.7159C242.228 36.526 242.187 36.3288 242.13 36.1243L241.935 35.4058C241.812 34.9491 241.785 34.5446 241.856 34.1923C241.926 33.84 242.129 33.5626 242.465 33.3599C242.744 33.1915 243.032 33.12 243.331 33.1455C243.632 33.1716 243.918 33.278 244.187 33.4646C244.46 33.6519 244.692 33.9044 244.884 34.2222C245.078 34.5432 245.193 34.8633 245.228 35.1825C245.265 35.5007 245.229 35.7925 245.12 36.0578C245.011 36.3248 244.833 36.5382 244.587 36.6981L244.234 36.1144ZM246.836 37.609L241.856 40.6166L241.491 40.0135L246.472 37.0059L246.836 37.609ZM247.566 38.8183L248.001 39.5381L244.889 43.7272L244.924 43.7856L250.081 42.9817L250.515 43.7015L245.535 46.7091L245.194 46.1449L248.978 43.8598L248.949 43.8112L244.225 44.5399L243.896 43.9951L246.74 40.1536L246.711 40.105L242.927 42.3901L242.586 41.8259L247.566 38.8183ZM251.61 45.5139L246.629 48.5215L246.265 47.9184L251.246 44.9108L251.61 45.5139ZM247.359 49.7307L252.34 46.7231L252.704 47.3263L248.259 50.0108L249.657 52.3259L249.122 52.649L247.359 49.7307ZM249.999 54.1015L249.617 53.4692L255.702 52.2904L256.078 52.9129L252.202 57.7493L251.82 57.117L255.114 53.0969L255.09 53.058L249.999 54.1015ZM252.085 53.1601L253.624 55.7087L253.089 56.0318L251.55 53.4832L252.085 53.1601ZM252.67 58.5251L257.651 55.5175L258.667 57.2004C258.902 57.5895 259.028 57.949 259.046 58.2789C259.066 58.6079 258.996 58.9019 258.839 59.1609C258.681 59.4199 258.455 59.638 258.162 59.8152C257.868 59.9924 257.572 60.0896 257.272 60.1066C256.973 60.1237 256.684 60.0474 256.404 59.8777C256.126 59.707 255.871 59.4287 255.638 59.0428L254.815 57.681L255.36 57.352L256.171 58.6944C256.331 58.9603 256.499 59.1508 256.675 59.266C256.852 59.3827 257.034 59.4345 257.22 59.4213C257.41 59.4087 257.604 59.3422 257.803 59.2218C258.003 59.1014 258.155 58.9589 258.259 58.7942C258.363 58.6296 258.406 58.4409 258.388 58.2282C258.372 58.0145 258.283 57.7731 258.12 57.504L257.48 56.4437L253.034 59.1282L252.67 58.5251ZM256.323 59.5184L254.826 62.0951L254.403 61.3947L255.912 58.8374L256.323 59.5184ZM256.825 65.4055L256.29 65.7286L254.41 62.6158L254.945 62.2927L256.825 65.4055ZM257.352 66.3659C257.279 66.2459 257.26 66.117 257.294 65.9792C257.328 65.8414 257.405 65.7363 257.525 65.6638C257.645 65.5914 257.774 65.5722 257.912 65.6062C258.05 65.6402 258.155 65.7172 258.227 65.8372C258.3 65.9572 258.319 66.0861 258.285 66.2239C258.251 66.3617 258.174 66.4669 258.054 66.5393C257.975 66.5873 257.889 66.6111 257.798 66.6107C257.708 66.6119 257.623 66.5915 257.542 66.5495C257.464 66.5082 257.401 66.447 257.352 66.3659ZM258.48 68.2336C258.407 68.1136 258.388 67.9847 258.422 67.8469C258.456 67.7091 258.533 67.604 258.653 67.5315C258.773 67.4591 258.902 67.4399 259.04 67.4739C259.178 67.5079 259.283 67.5849 259.355 67.7049C259.428 67.8249 259.447 67.9538 259.413 68.0916C259.379 68.2294 259.302 68.3346 259.182 68.407C259.102 68.455 259.017 68.4788 258.926 68.4784C258.836 68.4796 258.751 68.4592 258.67 68.4172C258.592 68.3759 258.529 68.3147 258.48 68.2336ZM259.608 70.1013C259.535 69.9813 259.516 69.8524 259.55 69.7146C259.584 69.5768 259.661 69.4717 259.781 69.3992C259.901 69.3268 260.03 69.3076 260.168 69.3416C260.305 69.3756 260.411 69.4526 260.483 69.5726C260.555 69.6926 260.575 69.8215 260.541 69.9593C260.507 70.0971 260.43 70.2022 260.31 70.2747C260.23 70.3227 260.145 70.3465 260.054 70.3461C259.964 70.3473 259.879 70.3269 259.798 70.2849C259.72 70.2436 259.657 70.1824 259.608 70.1013Z" fill="black"/>
<path d="M153.171 112.698L153.75 113.514C144.353 120.186 135.954 128.162 128.806 137.202L128.021 136.581C135.229 127.467 143.697 119.426 153.171 112.698ZM111.401 164.575L112.321 164.967C107.807 175.571 104.825 186.763 103.465 198.207L106.444 198.561L102.143 205.099L99.4934 197.735L102.472 198.089C103.843 186.551 106.849 175.266 111.401 164.575Z" fill="#A5ABB6"/>
<path d="M115.859 162.236L110.801 159.36L111.772 157.651C111.997 157.256 112.249 156.97 112.528 156.794C112.806 156.616 113.096 156.532 113.399 156.544C113.702 156.555 114.003 156.645 114.301 156.814C114.599 156.984 114.828 157.195 114.99 157.448C115.151 157.701 115.226 157.991 115.214 158.317C115.201 158.643 115.083 159.002 114.86 159.394L114.074 160.777L113.521 160.462L114.296 159.099C114.449 158.829 114.533 158.589 114.548 158.38C114.563 158.169 114.52 157.985 114.417 157.828C114.314 157.669 114.161 157.532 113.958 157.417C113.756 157.302 113.557 157.239 113.363 157.229C113.168 157.218 112.982 157.273 112.805 157.392C112.627 157.511 112.46 157.707 112.305 157.98L111.692 159.057L116.207 161.624L115.859 162.236ZM114.94 158.564L117.92 158.611L117.516 159.322L114.547 159.255L114.94 158.564ZM118.506 157.58L118.141 158.222L114.139 153.489L114.498 152.857L120.612 153.876L120.247 154.518L115.13 153.609L115.108 153.648L118.506 157.58ZM116.665 156.22L118.136 153.632L118.68 153.941L117.208 156.529L116.665 156.22ZM116.052 151.389L115.509 151.08L117.666 147.286L118.209 147.595L117.305 149.186L121.819 151.753L121.471 152.365L116.957 149.798L116.052 151.389ZM123.261 149.217L118.203 146.341L119.939 143.289L120.482 143.598L119.095 146.038L120.804 147.009L122.101 144.727L122.645 145.036L121.347 147.318L123.066 148.295L124.476 145.816L125.019 146.125L123.261 149.217ZM126.512 143.5L125.624 145.06L120.566 142.185L121.493 140.555C121.772 140.064 122.112 139.702 122.513 139.468C122.912 139.233 123.353 139.13 123.836 139.158C124.317 139.186 124.82 139.348 125.343 139.646C125.87 139.945 126.27 140.297 126.544 140.701C126.816 141.104 126.952 141.543 126.952 142.018C126.951 142.492 126.804 142.986 126.512 143.5ZM125.429 144.139L125.946 143.23C126.184 142.812 126.3 142.42 126.295 142.053C126.29 141.686 126.177 141.351 125.956 141.046C125.734 140.742 125.418 140.473 125.006 140.239C124.598 140.006 124.209 139.873 123.838 139.839C123.466 139.804 123.125 139.874 122.817 140.049C122.506 140.223 122.239 140.508 122.014 140.903L121.458 141.881L125.429 144.139Z" fill="black"/>
<path d="M87.5449 207.799L77.1742 189.022L76.2989 189.505L86.6695 208.282L87.5449 207.799ZM55.5734 149.91L45.2028 131.133L47.8289 129.683L41.3809 125.247L41.7013 133.067L44.3274 131.617L54.698 150.394L55.5734 149.91Z" fill="#A5ABB6"/>
<path d="M54.6047 155.396L59.6977 152.583L60.6811 154.364C60.8771 154.718 60.9773 155.045 60.9819 155.343C60.9882 155.64 60.9196 155.902 60.7763 156.128C60.6347 156.354 60.4395 156.535 60.1908 156.673C59.972 156.793 59.7697 156.854 59.5841 156.855C59.3994 156.858 59.2308 156.819 59.0784 156.738C58.9268 156.66 58.7908 156.559 58.6705 156.435L58.6207 156.462C58.6968 156.624 58.7287 156.81 58.7162 157.023C58.7037 157.235 58.6339 157.446 58.5068 157.655C58.3797 157.863 58.1819 158.042 57.9133 158.19C57.658 158.331 57.3963 158.4 57.1283 158.396C56.8603 158.393 56.5975 158.299 56.3399 158.115C56.0822 157.93 55.8426 157.637 55.621 157.236L54.6047 155.396ZM55.4924 155.711L56.1681 156.934C56.3906 157.337 56.6265 157.58 56.8758 157.663C57.1276 157.747 57.3654 157.727 57.5892 157.603C57.7616 157.508 57.8965 157.376 57.9939 157.208C58.0929 157.038 58.1415 156.848 58.1396 156.637C58.1394 156.425 58.078 156.208 57.9553 155.986L57.263 154.733L55.4924 155.711ZM57.8002 154.436L58.432 155.58C58.5345 155.766 58.6635 155.913 58.8188 156.022C58.9751 156.132 59.1438 156.195 59.325 156.21C59.5071 156.226 59.6876 156.185 59.8667 156.086C60.0905 155.962 60.2373 155.779 60.3071 155.537C60.3785 155.295 60.3208 155.004 60.134 154.666L59.4912 153.502L57.8002 154.436ZM57.1202 159.951L62.2132 157.138L63.9108 160.211L63.3637 160.514L62.0067 158.057L60.2858 159.007L61.5549 161.305L61.0078 161.607L59.7387 159.309L58.0079 160.265L59.3869 162.762L58.8398 163.064L57.1202 159.951ZM59.4317 164.136L64.5248 161.323L64.8654 161.94L60.3194 164.451L61.627 166.818L61.0799 167.12L59.4317 164.136ZM66.4176 170.768C65.8805 171.064 65.3627 171.224 64.8643 171.246C64.3659 171.268 63.9172 171.168 63.5182 170.947C63.1192 170.726 62.7998 170.399 62.5599 169.964C62.32 169.53 62.2127 169.085 62.2381 168.63C62.2636 168.174 62.4183 167.742 62.7025 167.331C62.9866 166.921 63.3972 166.568 63.9344 166.271C64.4716 165.975 64.9893 165.815 65.4877 165.793C65.9861 165.771 66.4348 165.871 66.8338 166.092C67.2328 166.313 67.5523 166.64 67.7922 167.075C68.0321 167.509 68.1393 167.954 68.1139 168.409C68.0885 168.865 67.9337 169.297 67.6496 169.707C67.3654 170.118 66.9548 170.471 66.4176 170.768ZM66.088 170.171C66.529 169.927 66.8604 169.648 67.0823 169.333C67.3052 169.019 67.4254 168.694 67.4429 168.358C67.4614 168.023 67.3855 167.702 67.2152 167.393C67.0449 167.085 66.8127 166.849 66.5186 166.684C66.2254 166.522 65.8864 166.45 65.5015 166.47C65.1175 166.492 64.705 166.625 64.264 166.868C63.823 167.112 63.4911 167.39 63.2683 167.704C63.0464 168.019 62.9262 168.344 62.9077 168.679C62.8901 169.015 62.9665 169.337 63.1368 169.646C63.3071 169.954 63.5389 170.19 63.832 170.352C64.1262 170.516 64.4652 170.588 64.8492 170.566C65.234 170.546 65.647 170.414 66.088 170.171ZM71.7674 174.437L66.6743 177.25L66.3447 176.653L68.8108 171.669L68.7833 171.619L64.7845 173.828L64.4438 173.211L69.5369 170.398L69.8665 170.995L67.396 175.994L67.4235 176.044L71.4323 173.83L71.7674 174.437ZM72.7802 180.031C72.9175 179.884 73.0277 179.729 73.1109 179.567C73.1966 179.404 73.2529 179.236 73.2796 179.061C73.3073 178.888 73.3034 178.711 73.268 178.529C73.2326 178.347 73.164 178.164 73.0624 177.98C72.8957 177.679 72.6663 177.447 72.374 177.286C72.0817 177.125 71.7436 177.056 71.3597 177.077C70.9757 177.099 70.5632 177.232 70.1222 177.475C69.6812 177.719 69.3497 177.998 69.1278 178.313C68.9059 178.628 68.7867 178.955 68.77 179.293C68.7533 179.631 68.832 179.958 69.006 180.273C69.1671 180.564 69.3712 180.787 69.6182 180.941C69.8679 181.095 70.1414 181.171 70.4389 181.169C70.7389 181.168 71.0448 181.081 71.3564 180.909L71.421 181.12L70.575 179.588L71.1221 179.286L72.1934 181.225L71.6463 181.528C71.2268 181.759 70.8126 181.871 70.4037 181.863C69.9957 181.857 69.6198 181.744 69.276 181.525C68.9348 181.307 68.6524 180.996 68.429 180.591C68.18 180.14 68.0672 179.685 68.0908 179.227C68.1153 178.77 68.2705 178.338 68.5565 177.931C68.8434 177.526 69.2554 177.175 69.7926 176.878C70.1954 176.656 70.5874 176.51 70.9686 176.44C71.3523 176.371 71.7127 176.373 72.0497 176.446C72.3867 176.52 72.6908 176.659 72.962 176.864C73.2332 177.069 73.459 177.335 73.6393 177.662C73.7877 177.93 73.8853 178.203 73.9323 178.48C73.9818 178.758 73.9831 179.029 73.9363 179.292C73.8921 179.557 73.8018 179.807 73.6657 180.042C73.5312 180.277 73.3532 180.485 73.1318 180.668L72.7802 180.031ZM75.5883 184.364C75.8238 184.195 75.9526 183.966 75.9747 183.676C75.9967 183.387 75.9226 183.089 75.7523 182.78C75.6278 182.555 75.4823 182.378 75.316 182.249C75.1506 182.122 74.9779 182.046 74.7981 182.022C74.6191 182 74.4484 182.033 74.286 182.123C74.15 182.198 74.051 182.295 73.9889 182.414C73.9294 182.533 73.8956 182.662 73.8878 182.801C73.8815 182.938 73.8888 183.075 73.9096 183.211C73.9321 183.345 73.957 183.467 73.9843 183.575L74.1307 184.169C74.1692 184.321 74.2026 184.495 74.231 184.691C74.2603 184.889 74.2631 185.092 74.2394 185.3C74.2183 185.509 74.1527 185.707 74.0426 185.896C73.9324 186.084 73.758 186.244 73.5193 186.376C73.2441 186.528 72.9556 186.593 72.6537 186.572C72.3528 186.552 72.0609 186.441 71.7779 186.238C71.4959 186.036 71.2468 185.74 71.0307 185.349C70.8293 184.984 70.7137 184.636 70.684 184.304C70.6552 183.974 70.704 183.674 70.8303 183.405C70.9575 183.138 71.1549 182.918 71.4224 182.744L71.774 183.381C71.5909 183.503 71.4674 183.656 71.4037 183.838C71.3425 184.021 71.3293 184.217 71.3641 184.425C71.4015 184.634 71.4761 184.839 71.5878 185.041C71.7178 185.277 71.8727 185.467 72.0524 185.612C72.2338 185.757 72.4235 185.845 72.6215 185.879C72.8212 185.911 73.0139 185.876 73.1996 185.774C73.3687 185.68 73.4802 185.557 73.5341 185.404C73.588 185.251 73.6056 185.079 73.5867 184.888C73.5679 184.697 73.5339 184.499 73.4848 184.292L73.3177 183.567C73.2123 183.106 73.2017 182.7 73.2857 182.351C73.3697 182.002 73.5833 181.732 73.9265 181.543C74.2116 181.385 74.5029 181.325 74.8003 181.362C75.1002 181.4 75.3814 181.517 75.6438 181.714C75.9087 181.912 76.1309 182.173 76.3104 182.498C76.4917 182.826 76.594 183.151 76.6173 183.471C76.6422 183.79 76.5948 184.08 76.4749 184.341C76.356 184.604 76.1703 184.81 75.9179 184.961L75.5883 184.364Z" fill="black"/>
<path d="M148.841 98.9497L119.383 99.914L119.416 100.913L148.874 99.9492L148.841 98.9497ZM90.7188 100.852L61.2609 101.816L61.1628 98.8181L54.281 102.545L61.3918 105.814L61.2936 102.816L90.7515 101.852L90.7188 100.852Z" fill="#A5ABB6"/>
<path d="M95.016 104.213L94.8257 98.3984L95.5299 98.3753L95.6998 103.566L98.4028 103.477L98.4233 104.102L95.016 104.213ZM100.027 98.2281L100.218 104.043L99.5136 104.066L99.3233 98.2511L100.027 98.2281ZM101.63 103.997L101.439 98.1819L102.144 98.1588L102.238 101.044L102.306 101.041L104.824 98.0711L105.744 98.041L103.388 100.745L105.934 103.856L105.082 103.884L102.972 101.247L102.272 102.089L102.334 103.974L101.63 103.997ZM106.846 103.826L106.655 98.0111L110.165 97.8963L110.185 98.5209L107.38 98.6128L107.444 100.578L110.068 100.492L110.088 101.116L107.465 101.202L107.529 103.179L110.38 103.085L110.401 103.71L106.846 103.826ZM114.662 99.2044C114.618 98.9178 114.473 98.699 114.225 98.5479C113.978 98.3968 113.678 98.327 113.326 98.3386C113.068 98.347 112.844 98.396 112.654 98.4856C112.466 98.5751 112.32 98.6946 112.217 98.8439C112.116 98.9931 112.068 99.1604 112.074 99.346C112.079 99.5012 112.12 99.6334 112.198 99.7427C112.277 99.85 112.377 99.9386 112.496 100.009C112.616 100.077 112.741 100.132 112.871 100.175C113.002 100.217 113.121 100.25 113.23 100.275L113.826 100.414C113.979 100.449 114.149 100.498 114.337 100.562C114.526 100.626 114.708 100.716 114.883 100.832C115.059 100.945 115.206 101.094 115.324 101.278C115.441 101.461 115.505 101.69 115.514 101.962C115.524 102.276 115.451 102.563 115.295 102.822C115.14 103.081 114.908 103.29 114.599 103.45C114.291 103.61 113.914 103.697 113.468 103.712C113.051 103.725 112.688 103.67 112.379 103.546C112.072 103.421 111.827 103.242 111.645 103.007C111.465 102.772 111.359 102.496 111.325 102.179L112.052 102.155C112.078 102.374 112.158 102.553 112.292 102.693C112.427 102.831 112.595 102.931 112.796 102.995C112.999 103.056 113.216 103.083 113.447 103.076C113.716 103.067 113.955 103.016 114.167 102.921C114.378 102.825 114.543 102.697 114.663 102.536C114.782 102.373 114.839 102.185 114.832 101.973C114.826 101.78 114.766 101.625 114.655 101.507C114.543 101.389 114.398 101.296 114.219 101.226C114.041 101.156 113.848 101.096 113.642 101.046L112.92 100.865C112.461 100.749 112.095 100.574 111.822 100.341C111.549 100.107 111.407 99.7942 111.394 99.4023C111.383 99.0767 111.462 98.7899 111.63 98.5419C111.8 98.2919 112.032 98.0948 112.327 97.9506C112.623 97.8044 112.957 97.7253 113.328 97.7131C113.703 97.7009 114.038 97.7572 114.334 97.882C114.63 98.005 114.867 98.1791 115.045 98.4045C115.225 98.6298 115.324 98.889 115.343 99.1821L114.662 99.2044Z" fill="black"/>
<path d="M77.6318 242.587L42.7417 262.149C40.3445 263.493 37.6704 264.268 34.926 264.413C32.1816 264.558 29.4406 264.07 26.9151 262.987C24.3895 261.903 22.1471 260.253 20.3612 258.164C18.5754 256.075 17.294 253.604 16.6162 250.94C15.9384 248.277 15.8824 245.494 16.4524 242.805C17.0225 240.117 18.2034 237.595 19.9037 235.436C21.604 233.277 23.7782 231.538 26.2581 230.354C28.738 229.17 31.4571 228.572 34.2051 228.606L67.2025 229.022L67.1521 233.022L74.1957 229.61L67.2403 226.022L67.1899 230.022L34.1925 229.606C31.5979 229.573 29.0306 230.138 26.6891 231.256C24.3476 232.375 22.2947 234.017 20.6893 236.055C19.0839 238.094 17.9689 240.474 17.4307 243.013C16.8925 245.551 16.9454 248.179 17.5853 250.694C18.2253 253.208 19.4352 255.542 21.1213 257.514C22.8075 259.487 24.9248 261.045 27.3094 262.068C29.694 263.091 32.282 263.552 34.8732 263.415C37.4643 263.278 39.9893 262.546 42.2526 261.277L77.1428 241.715L77.6318 242.587Z" fill="#A5ABB6"/>
<path d="M9.15474 240.42C9.42532 240.316 9.6078 240.127 9.70219 239.853C9.79658 239.579 9.80033 239.271 9.71345 238.929C9.64992 238.68 9.55395 238.472 9.42555 238.305C9.29761 238.14 9.14967 238.023 8.98172 237.955C8.81423 237.888 8.64055 237.877 8.46068 237.923C8.31017 237.962 8.18988 238.03 8.09981 238.129C8.01204 238.23 7.94684 238.346 7.90422 238.478C7.86343 238.61 7.83598 238.744 7.82186 238.88C7.80957 239.016 7.80297 239.14 7.80207 239.252L7.79363 239.864C7.79245 240.02 7.7808 240.197 7.75866 240.394C7.73699 240.593 7.68845 240.79 7.61302 240.985C7.53989 241.182 7.42626 241.357 7.27211 241.512C7.11796 241.666 6.90873 241.777 6.64443 241.845C6.33975 241.922 6.04411 241.912 5.75753 241.815C5.47141 241.72 5.21708 241.538 4.99454 241.271C4.77247 241.005 4.60631 240.655 4.49608 240.222C4.39331 239.818 4.36949 239.452 4.4246 239.123C4.48018 238.797 4.60303 238.519 4.79316 238.291C4.98375 238.064 5.23042 237.901 5.53317 237.801L5.71254 238.505C5.5043 238.578 5.34631 238.694 5.23858 238.855C5.13316 239.016 5.07101 239.202 5.05215 239.412C5.03558 239.624 5.0558 239.841 5.11278 240.065C5.17911 240.326 5.28088 240.549 5.4181 240.735C5.55714 240.92 5.71825 241.054 5.90142 241.137C6.08643 241.219 6.28172 241.233 6.48728 241.181C6.6745 241.133 6.81353 241.042 6.90437 240.908C6.99521 240.773 7.05562 240.611 7.0856 240.422C7.11557 240.233 7.13287 240.032 7.13749 239.82L7.15915 239.075C7.17369 238.603 7.26573 238.208 7.43527 237.891C7.60481 237.574 7.87955 237.368 8.25948 237.271C8.57518 237.191 8.87221 237.206 9.15059 237.317C9.43127 237.429 9.67367 237.614 9.87778 237.87C10.0842 238.129 10.2332 238.438 10.3247 238.797C10.4172 239.161 10.4343 239.5 10.3759 239.816C10.3194 240.132 10.2001 240.4 10.0183 240.622C9.83684 240.846 9.60506 240.999 9.3229 241.081L9.15474 240.42ZM11.2116 242.605L5.57314 244.04L5.39937 243.357L11.0378 241.922L11.2116 242.605ZM11.56 243.974L11.7674 244.789L7.57469 247.896L7.5915 247.962L12.7595 248.687L12.9669 249.502L7.32846 250.937L7.16591 250.298L11.4498 249.208L11.4358 249.153L6.70347 248.481L6.54653 247.864L10.382 245.012L10.368 244.957L6.08409 246.047L5.92154 245.409L11.56 243.974ZM13.4891 251.554L7.85063 252.989L7.67687 252.306L13.3153 250.871L13.4891 251.554ZM8.19903 254.358L13.8375 252.923L14.0112 253.605L8.97849 254.886L9.64552 257.507L9.03982 257.661L8.19903 254.358ZM9.45829 259.306L9.27612 258.59L15.4415 259.225L15.6208 259.93L10.5093 263.435L10.3271 262.72L14.6447 259.827L14.6335 259.783L9.45829 259.306ZM11.7281 259.01L12.4624 261.895L11.8567 262.049L11.1224 259.164L11.7281 259.01ZM10.7328 264.314L16.3712 262.879L16.8561 264.784C16.9682 265.224 16.985 265.605 16.9064 265.926C16.8297 266.247 16.6783 266.508 16.4522 266.71C16.2261 266.912 15.947 267.056 15.6148 267.14C15.2826 267.225 14.9707 267.232 14.6792 267.161C14.3876 267.091 14.1327 266.934 13.9144 266.691C13.698 266.447 13.5341 266.106 13.423 265.669L13.0306 264.128L13.6473 263.971L14.0341 265.49C14.1107 265.791 14.2164 266.023 14.3512 266.184C14.4865 266.347 14.6454 266.449 14.8279 266.49C15.0128 266.533 15.2181 266.526 15.4438 266.468C15.6696 266.411 15.8561 266.319 16.0035 266.191C16.1509 266.064 16.2469 265.896 16.2915 265.687C16.3379 265.478 16.3223 265.221 16.2448 264.916L15.9393 263.716L10.9066 264.997L10.7328 264.314ZM13.9411 266.323L11.7614 268.355L11.5596 267.562L13.7449 265.552L13.9411 266.323Z" fill="black"/>
<path d="M195.901 110.41L230.802 129.953C233.2 131.296 235.257 133.172 236.813 135.437C238.37 137.702 239.385 140.294 239.779 143.014C240.174 145.734 239.937 148.508 239.088 151.122C238.239 153.735 236.8 156.119 234.882 158.087C232.965 160.056 230.62 161.557 228.03 162.475C225.439 163.392 222.672 163.701 219.943 163.378C217.214 163.056 214.596 162.109 212.291 160.612C209.986 159.116 208.056 157.109 206.651 154.747L189.777 126.388L193.214 124.342L186.627 120.116L187.199 127.922L190.636 125.876L207.51 154.236C208.837 156.466 210.659 158.361 212.835 159.774C215.011 161.187 217.484 162.08 220.06 162.385C222.637 162.69 225.25 162.398 227.696 161.532C230.142 160.666 232.356 159.248 234.166 157.39C235.977 155.531 237.335 153.28 238.137 150.813C238.939 148.345 239.162 145.726 238.79 143.158C238.417 140.59 237.459 138.142 235.989 136.003C234.519 133.865 232.577 132.093 230.313 130.826L195.413 111.282L195.901 110.41Z" fill="#A5ABB6"/>
<path d="M229.806 169.944C229.576 169.767 229.319 169.71 229.036 169.773C228.753 169.836 228.488 169.993 228.243 170.246C228.063 170.43 227.936 170.621 227.86 170.817C227.787 171.012 227.764 171.199 227.793 171.379C227.824 171.556 227.906 171.71 228.039 171.839C228.15 171.948 228.271 172.014 228.403 172.04C228.534 172.062 228.668 172.057 228.802 172.024C228.936 171.99 229.065 171.944 229.188 171.885C229.311 171.824 229.42 171.765 229.515 171.708L230.042 171.395C230.176 171.314 230.333 171.232 230.513 171.148C230.694 171.063 230.887 171.001 231.093 170.964C231.299 170.923 231.508 170.929 231.72 170.979C231.932 171.03 232.136 171.151 232.331 171.341C232.557 171.56 232.703 171.818 232.769 172.113C232.837 172.407 232.815 172.718 232.703 173.048C232.592 173.376 232.381 173.7 232.069 174.02C231.778 174.319 231.479 174.53 231.169 174.655C230.862 174.778 230.561 174.818 230.267 174.775C229.974 174.731 229.706 174.606 229.462 174.4L229.97 173.879C230.14 174.019 230.322 174.093 230.515 174.101C230.708 174.107 230.899 174.063 231.088 173.969C231.277 173.873 231.452 173.742 231.613 173.576C231.801 173.384 231.938 173.18 232.025 172.966C232.111 172.751 232.141 172.544 232.115 172.344C232.089 172.144 231.999 171.97 231.847 171.822C231.709 171.687 231.559 171.616 231.397 171.608C231.234 171.601 231.065 171.634 230.888 171.708C230.71 171.781 230.53 171.871 230.347 171.978L229.701 172.348C229.29 172.582 228.905 172.71 228.547 172.731C228.188 172.752 227.868 172.625 227.587 172.352C227.354 172.124 227.212 171.863 227.161 171.568C227.11 171.27 227.141 170.967 227.254 170.658C227.366 170.348 227.552 170.059 227.811 169.793C228.072 169.525 228.353 169.333 228.653 169.218C228.952 169.101 229.243 169.063 229.527 169.102C229.813 169.139 230.065 169.257 230.281 169.455L229.806 169.944ZM230.595 167.049L234.763 171.109L234.271 171.613L230.103 167.554L230.595 167.049ZM231.581 166.037L232.167 165.435L237.007 167.388L237.054 167.339L234.974 162.553L235.561 161.951L239.729 166.01L239.269 166.483L236.102 163.398L236.063 163.439L237.961 167.826L237.517 168.282L233.081 166.5L233.042 166.54L236.208 169.625L235.748 170.097L231.581 166.037ZM237.038 160.434L241.206 164.494L240.714 164.999L236.547 160.939L237.038 160.434ZM242.192 163.482L238.024 159.422L238.516 158.918L242.236 162.541L244.123 160.604L244.57 161.04L242.192 163.482ZM245.754 159.824L245.239 160.354L242.562 154.764L243.069 154.243L248.728 156.772L248.212 157.301L243.491 155.129L243.459 155.162L245.754 159.824ZM244.317 158.043L246.394 155.911L246.842 156.347L244.764 158.479L244.317 158.043ZM249.36 156.123L245.192 152.063L246.564 150.655C246.881 150.329 247.197 150.116 247.512 150.016C247.825 149.914 248.127 149.906 248.418 149.994C248.708 150.081 248.976 150.244 249.222 150.483C249.467 150.722 249.636 150.985 249.728 151.27C249.82 151.556 249.82 151.855 249.726 152.168C249.631 152.48 249.426 152.798 249.112 153.121L248.002 154.26L247.546 153.816L248.64 152.693C248.857 152.47 248.999 152.259 249.066 152.06C249.134 151.86 249.138 151.671 249.078 151.494C249.018 151.314 248.905 151.142 248.738 150.98C248.571 150.817 248.395 150.706 248.209 150.647C248.024 150.588 247.83 150.594 247.629 150.665C247.426 150.735 247.215 150.882 246.996 151.107L246.132 151.994L249.852 155.618L249.36 156.123ZM249.399 152.337L252.27 153.135L251.699 153.721L248.844 152.907L249.399 152.337Z" fill="black"/>
</g>
<path d="M99.1937 254.925C113.001 254.925 124.194 243.732 124.194 229.925C124.194 216.118 113.001 204.925 99.1937 204.925C85.3865 204.925 74.1937 216.118 74.1937 229.925C74.1937 243.732 85.3865 254.925 99.1937 254.925Z" fill="#57C7E3" stroke="#23B3D7" stroke-width="2"/>
<path d="M87.2667 227.652H88.3179L90.7895 233.689H90.8747L93.3463 227.652H94.3974V234.925H93.5735V229.399H93.5025L91.2298 234.925H90.4343L88.1616 229.399H88.0906V234.925H87.2667V227.652ZM98.2655 235.039C97.7731 235.039 97.341 234.921 96.9693 234.687C96.6 234.453 96.3112 234.125 96.1028 233.703C95.8969 233.282 95.7939 232.789 95.7939 232.226C95.7939 231.658 95.8969 231.162 96.1028 230.738C96.3112 230.314 96.6 229.985 96.9693 229.751C97.341 229.517 97.7731 229.399 98.2655 229.399C98.7579 229.399 99.1888 229.517 99.5581 229.751C99.9298 229.985 100.219 230.314 100.425 230.738C100.633 231.162 100.737 231.658 100.737 232.226C100.737 232.789 100.633 233.282 100.425 233.703C100.219 234.125 99.9298 234.453 99.5581 234.687C99.1888 234.921 98.7579 235.039 98.2655 235.039ZM98.2655 234.286C98.6395 234.286 98.9473 234.19 99.1888 233.998C99.4303 233.806 99.609 233.554 99.725 233.242C99.841 232.929 99.899 232.591 99.899 232.226C99.899 231.861 99.841 231.522 99.725 231.207C99.609 230.892 99.4303 230.637 99.1888 230.443C98.9473 230.249 98.6395 230.152 98.2655 230.152C97.8914 230.152 97.5837 230.249 97.3422 230.443C97.1007 230.637 96.922 230.892 96.806 231.207C96.69 231.522 96.632 231.861 96.632 232.226C96.632 232.591 96.69 232.929 96.806 233.242C96.922 233.554 97.1007 233.806 97.3422 233.998C97.5837 234.19 97.8914 234.286 98.2655 234.286ZM106.281 229.47L104.264 234.925H103.412L101.395 229.47H102.304L103.81 233.817H103.867L105.372 229.47H106.281ZM107.387 234.925V229.47H108.226V234.925H107.387ZM107.814 228.561C107.65 228.561 107.509 228.506 107.391 228.394C107.275 228.283 107.217 228.149 107.217 227.993C107.217 227.837 107.275 227.703 107.391 227.592C107.509 227.481 107.65 227.425 107.814 227.425C107.977 227.425 108.117 227.481 108.233 227.592C108.351 227.703 108.41 227.837 108.41 227.993C108.41 228.149 108.351 228.283 108.233 228.394C108.117 228.506 107.977 228.561 107.814 228.561ZM112.047 235.039C111.522 235.039 111.069 234.923 110.687 234.691C110.309 234.456 110.016 234.129 109.81 233.71C109.607 233.289 109.505 232.799 109.505 232.24C109.505 231.682 109.607 231.189 109.81 230.763C110.016 230.334 110.303 230.001 110.67 229.762C111.039 229.52 111.47 229.399 111.962 229.399C112.246 229.399 112.527 229.447 112.804 229.541C113.081 229.636 113.333 229.79 113.56 230.003C113.788 230.214 113.969 230.493 114.104 230.841C114.238 231.189 114.306 231.618 114.306 232.127V232.482H110.101V231.757H113.454C113.454 231.45 113.392 231.175 113.269 230.933C113.148 230.692 112.975 230.501 112.751 230.362C112.528 230.222 112.265 230.152 111.962 230.152C111.628 230.152 111.34 230.235 111.096 230.401C110.854 230.564 110.668 230.777 110.538 231.04C110.408 231.303 110.343 231.584 110.343 231.885V232.368C110.343 232.78 110.414 233.129 110.556 233.416C110.7 233.7 110.9 233.916 111.156 234.066C111.412 234.212 111.709 234.286 112.047 234.286C112.268 234.286 112.466 234.255 112.644 234.193C112.824 234.129 112.979 234.035 113.109 233.909C113.239 233.781 113.34 233.623 113.411 233.433L114.221 233.661C114.136 233.935 113.992 234.177 113.791 234.385C113.59 234.591 113.341 234.752 113.045 234.868C112.749 234.982 112.417 235.039 112.047 235.039Z" fill="#2A2C34"/>
<path d="M173.844 123.632C187.651 123.632 198.844 112.439 198.844 98.6316C198.844 84.8245 187.651 73.6316 173.844 73.6316C160.037 73.6316 148.844 84.8245 148.844 98.6316C148.844 112.439 160.037 123.632 173.844 123.632Z" fill="#F79767" stroke="#F36924" stroke-width="2"/>
<path d="M169.815 96.3588H170.695V101.174C170.695 101.671 170.578 102.115 170.344 102.506C170.112 102.894 169.784 103.201 169.36 103.426C168.936 103.648 168.439 103.759 167.869 103.759C167.298 103.759 166.801 103.648 166.377 103.426C165.953 103.201 165.624 102.894 165.39 102.506C165.158 102.115 165.042 101.671 165.042 101.174V96.3588H165.923V101.103C165.923 101.458 166.001 101.774 166.157 102.051C166.313 102.326 166.536 102.543 166.825 102.701C167.116 102.857 167.464 102.936 167.869 102.936C168.274 102.936 168.622 102.857 168.913 102.701C169.204 102.543 169.426 102.326 169.58 102.051C169.737 101.774 169.815 101.458 169.815 101.103V96.3588ZM176.204 99.3986L175.451 99.6117C175.404 99.4862 175.334 99.3643 175.242 99.2459C175.152 99.1252 175.029 99.0258 174.872 98.9476C174.716 98.8695 174.516 98.8304 174.272 98.8304C173.938 98.8304 173.66 98.9074 173.438 99.0613C173.218 99.2128 173.107 99.4057 173.107 99.6401C173.107 99.8484 173.183 100.013 173.335 100.134C173.486 100.254 173.723 100.355 174.045 100.436L174.855 100.634C175.342 100.753 175.706 100.934 175.945 101.178C176.184 101.419 176.304 101.731 176.304 102.112C176.304 102.424 176.214 102.704 176.034 102.95C175.856 103.196 175.607 103.39 175.288 103.532C174.968 103.674 174.597 103.745 174.173 103.745C173.616 103.745 173.156 103.624 172.791 103.383C172.427 103.142 172.196 102.789 172.099 102.325L172.894 102.126C172.97 102.419 173.113 102.64 173.324 102.786C173.537 102.933 173.815 103.007 174.159 103.007C174.549 103.007 174.859 102.924 175.089 102.758C175.321 102.59 175.437 102.389 175.437 102.154C175.437 101.965 175.371 101.806 175.238 101.678C175.106 101.548 174.902 101.451 174.627 101.387L173.718 101.174C173.219 101.056 172.852 100.872 172.617 100.624C172.385 100.373 172.269 100.059 172.269 99.6827C172.269 99.3749 172.356 99.1027 172.529 98.866C172.704 98.6292 172.942 98.4434 173.242 98.3084C173.545 98.1735 173.889 98.106 174.272 98.106C174.812 98.106 175.236 98.2244 175.544 98.4611C175.854 98.6979 176.074 99.0104 176.204 99.3986ZM179.852 103.745C179.326 103.745 178.873 103.629 178.492 103.397C178.113 103.163 177.821 102.836 177.615 102.417C177.411 101.996 177.309 101.506 177.309 100.947C177.309 100.388 177.411 99.8958 177.615 99.4696C177.821 99.0411 178.107 98.7073 178.474 98.4682C178.843 98.2267 179.274 98.106 179.767 98.106C180.051 98.106 180.331 98.1534 180.608 98.2481C180.885 98.3428 181.137 98.4966 181.365 98.7097C181.592 98.9204 181.773 99.1998 181.908 99.5478C182.043 99.8958 182.111 100.324 182.111 100.833V101.188H177.906V100.464H181.258C181.258 100.156 181.197 99.8816 181.074 99.6401C180.953 99.3986 180.78 99.208 180.555 99.0684C180.333 98.9287 180.07 98.8588 179.767 98.8588C179.433 98.8588 179.144 98.9417 178.9 99.1074C178.659 99.2708 178.473 99.4838 178.343 99.7466C178.213 100.009 178.147 100.291 178.147 100.592V101.075C178.147 101.487 178.218 101.836 178.361 102.122C178.505 102.406 178.705 102.623 178.961 102.772C179.216 102.919 179.513 102.992 179.852 102.992C180.072 102.992 180.271 102.962 180.449 102.9C180.628 102.836 180.784 102.741 180.914 102.616C181.044 102.488 181.145 102.329 181.216 102.14L182.025 102.367C181.94 102.642 181.797 102.883 181.596 103.092C181.394 103.298 181.146 103.459 180.85 103.575C180.554 103.688 180.221 103.745 179.852 103.745ZM183.385 103.632V98.177H184.195V99.0009H184.252C184.351 98.731 184.531 98.512 184.792 98.3439C185.052 98.1758 185.346 98.0918 185.672 98.0918C185.734 98.0918 185.811 98.093 185.903 98.0954C185.995 98.0977 186.065 98.1013 186.113 98.106V98.9583C186.084 98.9512 186.019 98.9405 185.917 98.9263C185.818 98.9097 185.713 98.9015 185.601 98.9015C185.336 98.9015 185.099 98.9571 184.891 99.0684C184.685 99.1773 184.522 99.3288 184.401 99.5229C184.283 99.7147 184.223 99.9337 184.223 100.18V103.632H183.385Z" fill="white"/>
<path d="M29.2944 128.363C43.1015 128.363 54.2944 117.17 54.2944 103.363C54.2944 89.5559 43.1015 78.3631 29.2944 78.3631C15.4873 78.3631 4.29437 89.5559 4.29437 103.363C4.29437 117.17 15.4873 128.363 29.2944 128.363Z" fill="#F16667" stroke="#EB2728" stroke-width="2"/>
<path d="M22.3146 103.363C22.2365 103.124 22.1335 102.91 22.0057 102.72C21.8802 102.529 21.7299 102.365 21.5547 102.23C21.3818 102.095 21.1854 101.992 20.9652 101.921C20.745 101.85 20.5035 101.815 20.2408 101.815C19.8099 101.815 19.4181 101.926 19.0653 102.149C18.7126 102.371 18.432 102.699 18.2237 103.132C18.0154 103.565 17.9112 104.097 17.9112 104.727C17.9112 105.356 18.0166 105.888 18.2273 106.321C18.438 106.754 18.7232 107.082 19.0831 107.305C19.4429 107.527 19.8478 107.639 20.2976 107.639C20.7142 107.639 21.0812 107.55 21.3984 107.372C21.718 107.192 21.9666 106.939 22.1442 106.612C22.3241 106.283 22.414 105.896 22.414 105.451L22.6839 105.508H20.4964V104.727H23.2663V105.508C23.2663 106.107 23.1385 106.628 22.8828 107.07C22.6295 107.513 22.2791 107.856 21.8317 108.1C21.3866 108.342 20.8752 108.462 20.2976 108.462C19.6536 108.462 19.0878 108.311 18.6001 108.008C18.1148 107.705 17.736 107.274 17.4638 106.715C17.1939 106.157 17.0589 105.494 17.0589 104.727C17.0589 104.151 17.1359 103.634 17.2898 103.175C17.446 102.713 17.6662 102.32 17.9503 101.996C18.2344 101.672 18.5705 101.423 18.9588 101.25C19.347 101.077 19.7744 100.991 20.2408 100.991C20.6243 100.991 20.9818 101.049 21.3132 101.165C21.647 101.279 21.9441 101.441 22.2045 101.651C22.4673 101.86 22.6863 102.11 22.8615 102.401C23.0367 102.69 23.1574 103.01 23.2237 103.363H22.3146ZM26.948 108.477C26.4224 108.477 25.969 108.361 25.5879 108.129C25.2091 107.894 24.9167 107.568 24.7107 107.149C24.5071 106.727 24.4053 106.237 24.4053 105.678C24.4053 105.12 24.5071 104.627 24.7107 104.201C24.9167 103.773 25.2032 103.439 25.5701 103.2C25.9394 102.958 26.3703 102.837 26.8627 102.837C27.1468 102.837 27.4274 102.885 27.7044 102.98C27.9813 103.074 28.2335 103.228 28.4607 103.441C28.688 103.652 28.8691 103.931 29.0041 104.279C29.139 104.627 29.2065 105.056 29.2065 105.565V105.92H25.0019V105.195H28.3542C28.3542 104.888 28.2927 104.613 28.1696 104.372C28.0488 104.13 27.876 103.94 27.6511 103.8C27.4285 103.66 27.1658 103.59 26.8627 103.59C26.5289 103.59 26.2401 103.673 25.9963 103.839C25.7548 104.002 25.5689 104.215 25.4387 104.478C25.3085 104.741 25.2434 105.023 25.2434 105.323V105.806C25.2434 106.218 25.3144 106.567 25.4565 106.854C25.6009 107.138 25.8009 107.355 26.0566 107.504C26.3123 107.65 26.6094 107.724 26.948 107.724C27.1681 107.724 27.367 107.693 27.5446 107.632C27.7245 107.568 27.8795 107.473 28.0097 107.347C28.14 107.22 28.2406 107.061 28.3116 106.872L29.1213 107.099C29.036 107.373 28.8928 107.615 28.6916 107.823C28.4903 108.029 28.2418 108.19 27.9458 108.306C27.6499 108.42 27.3173 108.477 26.948 108.477ZM31.3194 105.082V108.363H30.4813V102.909H31.291V103.761H31.362C31.4899 103.484 31.684 103.261 31.9444 103.093C32.2048 102.923 32.541 102.837 32.9529 102.837C33.3222 102.837 33.6454 102.913 33.9224 103.065C34.1994 103.214 34.4148 103.441 34.5687 103.747C34.7226 104.05 34.7995 104.433 34.7995 104.897V108.363H33.9615V104.954C33.9615 104.525 33.8502 104.192 33.6276 103.953C33.4051 103.711 33.0997 103.59 32.7115 103.59C32.4439 103.59 32.2048 103.648 31.9941 103.764C31.7858 103.88 31.6213 104.05 31.5005 104.272C31.3798 104.495 31.3194 104.765 31.3194 105.082ZM36.3309 108.363V102.909H37.1406V103.732H37.1974C37.2969 103.462 37.4768 103.244 37.7372 103.075C37.9976 102.907 38.2912 102.823 38.6179 102.823C38.6794 102.823 38.7564 102.824 38.8487 102.827C38.941 102.829 39.0109 102.833 39.0582 102.837V103.69C39.0298 103.683 38.9647 103.672 38.8629 103.658C38.7635 103.641 38.6581 103.633 38.5469 103.633C38.2817 103.633 38.045 103.689 37.8366 103.8C37.6307 103.909 37.4673 104.06 37.3466 104.254C37.2282 104.446 37.169 104.665 37.169 104.911V108.363H36.3309ZM42.1726 108.477C41.647 108.477 41.1936 108.361 40.8125 108.129C40.4337 107.894 40.1413 107.568 39.9354 107.149C39.7318 106.727 39.63 106.237 39.63 105.678C39.63 105.12 39.7318 104.627 39.9354 104.201C40.1413 103.773 40.4278 103.439 40.7947 103.2C41.164 102.958 41.5949 102.837 42.0873 102.837C42.3714 102.837 42.652 102.885 42.929 102.98C43.2059 103.074 43.4581 103.228 43.6854 103.441C43.9126 103.652 44.0937 103.931 44.2287 104.279C44.3636 104.627 44.4311 105.056 44.4311 105.565V105.92H40.2265V105.195H43.5788C43.5788 104.888 43.5173 104.613 43.3942 104.372C43.2734 104.13 43.1006 103.94 42.8757 103.8C42.6532 103.66 42.3904 103.59 42.0873 103.59C41.7535 103.59 41.4647 103.673 41.2209 103.839C40.9794 104.002 40.7935 104.215 40.6633 104.478C40.5331 104.741 40.468 105.023 40.468 105.323V105.806C40.468 106.218 40.539 106.567 40.6811 106.854C40.8255 107.138 41.0256 107.355 41.2812 107.504C41.5369 107.65 41.834 107.724 42.1726 107.724C42.3927 107.724 42.5916 107.693 42.7692 107.632C42.9491 107.568 43.1042 107.473 43.2344 107.347C43.3646 107.22 43.4652 107.061 43.5362 106.872L44.3459 107.099C44.2606 107.373 44.1174 107.615 43.9162 107.823C43.7149 108.029 43.4664 108.19 43.1704 108.306C42.8745 108.42 42.5419 108.477 42.1726 108.477Z" fill="white"/>
</g>
<defs>
<filter id="filter0_d_1_3" x="-0.0196075" y="2.59933" width="268.979" height="330.285" filterUnits="userSpaceOnUse" color-interpolation-filters="sRGB">
<feFlood flood-opacity="0" result="BackgroundImageFix"/>
<feColorMatrix in="SourceAlpha" type="matrix" values="0 0 0 0 0 0 0 0 0 0 0 0 0 0 0 0 0 0 127 0" result="hardAlpha"/>
<feOffset dy="4"/>
<feGaussianBlur stdDeviation="2"/>
<feComposite in2="hardAlpha" operator="out"/>
<feColorMatrix type="matrix" values="0 0 0 0 0 0 0 0 0 0 0 0 0 0 0 0 0 0 0.25 0"/>
<feBlend mode="normal" in2="BackgroundImageFix" result="effect1_dropShadow_1_3"/>
<feBlend mode="normal" in="SourceGraphic" in2="effect1_dropShadow_1_3" result="shape"/>
</filter>
<clipPath id="clip0_1_3">
<rect width="268.595" height="326.387" fill="white"/>
</clipPath>
</defs>
</svg>
