<svg width="269" height="327" viewBox="0 0 269 327" fill="none" xmlns="http://www.w3.org/2000/svg">
<g clip-path="url(#clip0_1_3)">
<g filter="url(#filter0_d_1_3)">
<path d="M160.355 77.577L139.455 43.4716C138.019 41.1284 137.141 38.4863 136.889 35.7496C136.638 33.013 137.019 30.2551 138.004 27.6894C138.989 25.1238 140.551 22.819 142.569 20.9535C144.587 19.088 147.007 17.7117 149.642 16.9312C152.277 16.1506 155.056 15.9867 157.765 16.4521C160.473 16.9174 163.039 17.9996 165.262 19.615C167.485 21.2303 169.307 23.3354 170.587 25.7675C171.866 28.1996 172.569 30.8935 172.641 33.6408L173.506 66.6295L169.507 66.7342L173.189 73.6402L176.505 66.5509L172.506 66.6557L171.642 33.667C171.574 31.073 170.91 28.5295 169.702 26.2332C168.494 23.9368 166.773 21.9492 164.674 20.424C162.575 18.8988 160.153 17.877 157.596 17.4376C155.038 16.9982 152.414 17.153 149.926 17.89C147.438 18.627 145.153 19.9264 143.248 21.6878C141.342 23.4492 139.868 25.6253 138.938 28.0478C138.008 30.4703 137.648 33.0742 137.885 35.6581C138.123 38.242 138.951 40.7367 140.307 42.9491L161.208 77.0545L160.355 77.577Z" fill="#A5ABB6"/>
<path d="M131.127 14.736C131.012 14.4696 130.816 14.2946 130.539 14.2109C130.261 14.1273 129.953 14.1354 129.616 14.2355C129.369 14.3087 129.164 14.4126 129.003 14.5474C128.843 14.6816 128.732 14.834 128.67 15.0045C128.61 15.1744 128.606 15.3484 128.659 15.5263C128.703 15.6753 128.776 15.7928 128.879 15.8789C128.983 15.9628 129.101 16.0234 129.235 16.0609C129.368 16.0965 129.503 16.1188 129.64 16.1276C129.776 16.1346 129.9 16.1364 130.012 16.1329L130.623 16.1177C130.78 16.1128 130.957 16.1175 131.155 16.132C131.355 16.1459 131.554 16.1868 131.751 16.2546C131.951 16.3201 132.13 16.4268 132.291 16.5749C132.451 16.7229 132.57 16.9277 132.648 17.1892C132.737 17.4906 132.739 17.7864 132.653 18.0765C132.569 18.3661 132.397 18.6273 132.138 18.8601C131.881 19.0923 131.538 19.2719 131.11 19.3988C130.71 19.5172 130.345 19.5552 130.014 19.5129C129.686 19.47 129.404 19.358 129.168 19.1769C128.935 18.9952 128.762 18.755 128.65 18.4564L129.347 18.2498C129.428 18.4551 129.55 18.6085 129.714 18.7099C129.88 18.809 130.068 18.8639 130.279 18.8746C130.491 18.8829 130.707 18.8543 130.929 18.7887C131.187 18.7123 131.406 18.6019 131.586 18.4576C131.766 18.3115 131.894 18.1453 131.969 17.9591C132.044 17.771 132.051 17.5753 131.991 17.3719C131.936 17.1867 131.839 17.0513 131.701 16.9657C131.563 16.8802 131.399 16.8261 131.209 16.8035C131.018 16.7809 130.817 16.7714 130.605 16.775L129.86 16.7822C129.387 16.786 128.989 16.7094 128.666 16.5522C128.343 16.3951 128.126 16.1286 128.015 15.7527C127.922 15.4403 127.926 15.1429 128.026 14.8605C128.127 14.5757 128.302 14.3263 128.551 14.1124C128.801 13.8961 129.104 13.7352 129.46 13.6298C129.819 13.5233 130.158 13.4931 130.476 13.5392C130.793 13.5834 131.066 13.6921 131.296 13.8653C131.526 14.0379 131.688 14.2635 131.781 14.5423L131.127 14.736ZM133.23 12.596L134.882 18.1745L134.207 18.3746L132.554 12.7961L133.23 12.596ZM134.584 12.1947L135.391 11.9559L138.658 16.0249L138.724 16.0056L139.248 10.8133L140.054 10.5745L141.706 16.1531L141.075 16.3403L139.819 12.1019L139.765 12.118L139.277 16.8728L138.667 17.0536L135.668 13.3316L135.613 13.3477L136.869 17.5861L136.237 17.7733L134.584 12.1947ZM142.084 9.97316L143.736 15.5517L143.061 15.7518L141.408 10.1733L142.084 9.97316ZM145.091 15.1505L143.438 9.57193L144.114 9.37182L145.589 14.3511L148.182 13.583L148.36 14.1822L145.091 15.1505ZM149.986 13.7003L149.278 13.9101L149.674 7.72474L150.371 7.51818L154.072 12.49L153.364 12.6998L150.306 8.49755L150.262 8.51046L149.986 13.7003ZM149.602 11.4437L152.457 10.5981L152.635 11.1973L149.78 12.043L149.602 11.4437ZM154.941 12.2326L153.289 6.65399L155.174 6.09562C155.61 5.96652 155.989 5.935 156.313 6.00107C156.636 6.06532 156.903 6.20647 157.114 6.42453C157.325 6.64258 157.479 6.91595 157.576 7.24464C157.674 7.57332 157.693 7.88469 157.634 8.17872C157.575 8.47276 157.428 8.73357 157.193 8.96115C156.958 9.18691 156.624 9.36381 156.192 9.49184L154.666 9.9437L154.485 9.33354L155.989 8.88813C156.287 8.79991 156.514 8.68532 156.669 8.54437C156.827 8.40287 156.923 8.24012 156.957 8.05611C156.993 7.86974 156.978 7.66488 156.912 7.44152C156.845 7.21816 156.746 7.03532 156.613 6.893C156.48 6.75068 156.308 6.66128 156.098 6.62482C155.887 6.58653 155.631 6.61204 155.329 6.70134L154.142 7.05314L155.617 12.0325L154.941 12.2326ZM156.825 8.94872L158.94 11.048L158.155 11.2804L156.062 9.17465L156.825 8.94872ZM162.648 9.94965L162.825 10.5489L159.339 11.5817L159.161 10.9825L162.648 9.94965ZM163.71 9.68238C163.576 9.72219 163.446 9.70822 163.321 9.64049C163.197 9.57275 163.114 9.4717 163.075 9.33732C163.035 9.20294 163.049 9.07337 163.117 8.94862C163.184 8.82386 163.285 8.74158 163.42 8.70177C163.554 8.66197 163.684 8.67593 163.808 8.74366C163.933 8.8114 164.015 8.91246 164.055 9.04684C164.082 9.13582 164.083 9.22426 164.06 9.31216C164.038 9.39952 163.997 9.47693 163.936 9.54439C163.876 9.60949 163.801 9.65548 163.71 9.68238ZM165.802 9.06269C165.668 9.10249 165.538 9.08853 165.413 9.02079C165.289 8.95306 165.206 8.852 165.167 8.71762C165.127 8.58324 165.141 8.45368 165.208 8.32892C165.276 8.20417 165.377 8.12188 165.512 8.08208C165.646 8.04227 165.776 8.05623 165.9 8.12397C166.025 8.1917 166.107 8.29276 166.147 8.42714C166.174 8.51612 166.175 8.60456 166.152 8.69246C166.13 8.77983 166.089 8.85724 166.028 8.92469C165.968 8.98979 165.893 9.03579 165.802 9.06269ZM167.894 8.44299C167.76 8.4828 167.63 8.46883 167.505 8.4011C167.381 8.33336 167.298 8.23231 167.259 8.09793C167.219 7.96355 167.233 7.83398 167.3 7.70923C167.368 7.58447 167.469 7.50219 167.604 7.46238C167.738 7.42258 167.868 7.43654 167.992 7.50427C168.117 7.57201 168.199 7.67307 168.239 7.80744C168.266 7.89643 168.267 7.98487 168.244 8.07277C168.222 8.16013 168.181 8.23754 168.12 8.305C168.06 8.3701 167.985 8.41609 167.894 8.44299Z" fill="black"/>
<path d="M190.81 80.2632L218.533 51.4283C220.438 49.4472 222.772 47.9308 225.357 46.9964C227.941 46.062 230.706 45.7347 233.437 46.0398C236.169 46.3449 238.793 47.2741 241.108 48.7557C243.422 50.2373 245.365 52.2315 246.786 54.5841C248.206 56.9366 249.067 59.5844 249.3 62.3226C249.534 65.0609 249.135 67.8162 248.133 70.3754C247.131 72.9346 245.555 75.2291 243.524 77.0814C241.494 78.9337 239.065 80.2941 236.425 81.0574L204.724 90.2235L203.613 86.3809L197.86 91.6875L205.557 93.1055L204.446 89.2629L236.147 80.0968C238.64 79.376 240.933 78.0915 242.85 76.3426C244.767 74.5937 246.256 72.4273 247.202 70.0109C248.147 67.5946 248.525 64.9931 248.304 62.4077C248.083 59.8222 247.271 57.3222 245.93 55.101C244.588 52.8798 242.754 50.9969 240.569 49.598C238.383 48.1991 235.905 47.3217 233.326 47.0336C230.748 46.7456 228.137 47.0546 225.697 47.9368C223.257 48.8191 221.052 50.2508 219.254 52.1213L191.531 80.9563L190.81 80.2632Z" fill="#A5ABB6"/>
<path d="M244.234 36.1144C244.463 35.9364 244.583 35.7026 244.594 35.4128C244.605 35.123 244.519 34.8274 244.337 34.5258C244.204 34.3053 244.052 34.134 243.881 34.0117C243.71 33.891 243.535 33.8221 243.354 33.8051C243.175 33.7897 243.005 33.83 242.847 33.9259C242.714 34.0062 242.618 34.1068 242.561 34.2278C242.506 34.3495 242.477 34.4796 242.475 34.6183C242.474 34.7561 242.486 34.8923 242.513 35.027C242.54 35.1607 242.57 35.2812 242.601 35.3883L242.771 35.9763C242.815 36.1266 242.855 36.2993 242.891 36.4944C242.928 36.6911 242.938 36.8938 242.923 37.1023C242.91 37.3116 242.852 37.5125 242.749 37.705C242.646 37.8976 242.478 38.0644 242.245 38.2054C241.976 38.3679 241.69 38.4442 241.387 38.4344C241.086 38.4261 240.79 38.3261 240.499 38.1343C240.21 37.9442 239.949 37.6578 239.718 37.2752C239.503 36.9185 239.374 36.5749 239.332 36.2443C239.29 35.9154 239.327 35.6142 239.443 35.3407C239.56 35.0689 239.748 34.841 240.009 34.657L240.385 35.2796C240.207 35.4094 240.089 35.5666 240.033 35.7512C239.979 35.9365 239.973 36.1324 240.016 36.3389C240.061 36.546 240.144 36.7484 240.263 36.9462C240.402 37.1764 240.564 37.3606 240.749 37.4988C240.936 37.636 241.129 37.7174 241.328 37.7432C241.529 37.7679 241.72 37.7255 241.902 37.6158C242.067 37.516 242.174 37.3885 242.222 37.2334C242.27 37.0784 242.281 36.9059 242.255 36.7159C242.228 36.526 242.187 36.3288 242.13 36.1243L241.935 35.4058C241.812 34.9491 241.785 34.5446 241.856 34.1923C241.926 33.84 242.129 33.5626 242.465 33.3599C242.744 33.1915 243.032 33.12 243.331 33.1455C243.632 33.1716 243.918 33.278 244.187 33.4646C244.46 33.6519 244.692 33.9044 244.884 34.2222C245.078 34.5432 245.193 34.8633 245.228 35.1825C245.265 35.5007 245.229 35.7925 245.12 36.0578C245.011 36.3248 244.833 36.5382 244.587 36.6981L244.234 36.1144ZM246.836 37.609L241.856 40.6166L241.491 40.0135L246.472 37.0059L246.836 37.609ZM247.566 38.8183L248.001 39.5381L244.889 43.7272L244.924 43.7856L250.081 42.9817L250.515 43.7015L245.535 46.7091L245.194 46.1449L248.978 43.8598L248.949 43.8112L244.225 44.5399L243.896 43.9951L246.74 40.1536L246.711 40.105L242.927 42.3901L242.586 41.8259L247.566 38.8183ZM251.61 45.5139L246.629 48.5215L246.265 47.9184L251.246 44.9108L251.61 45.5139ZM247.359 49.7307L252.34 46.7231L252.704 47.3263L248.259 50.0108L249.657 52.3259L249.122 52.649L247.359 49.7307ZM249.999 54.1015L249.617 53.4692L255.702 52.2904L256.078 52.9129L252.202 57.7493L251.82 57.117L255.114 53.0969L255.09 53.058L249.999 54.1015ZM252.085 53.1601L253.624 55.7087L253.089 56.0318L251.55 53.4832L252.085 53.1601ZM252.67 58.5251L257.651 55.5175L258.667 57.2004C258.902 57.5895 259.028 57.949 259.046 58.2789C259.066 58.6079 258.996 58.9019 258.839 59.1609C258.681 59.4199 258.455 59.638 258.162 59.8152C257.868 59.9924 257.572 60.0896 257.272 60.1066C256.973 60.1237 256.684 60.0474 256.404 59.8777C256.126 59.707 255.871 59.4287 255.638 59.0428L254.815 57.681L255.36 57.352L256.171 58.6944C256.331 58.9603 256.499 59.1508 256.675 59.266C256.852 59.3827 257.034 59.4345 257.22 59.4213C257.41 59.4087 257.604 59.3422 257.803 59.2218C258.003 59.1014 258.155 58.9589 258.259 58.7942C258.363 58.6296 258.406 58.4409 258.388 58.2282C258.372 58.0145 258.283 57.7731 258.12 57.504L257.48 56.4437L253.034 59.1282L252.67 58.5251ZM256.323 59.5184L254.826 62.0951L254.403 61.3947L255.912 58.8374L256.323 59.5184ZM256.825 65.4055L256.29 65.7286L254.41 62.6158L254.945 62.2927L256.825 65.4055ZM257.352 66.3659C257.279 66.2459 257.26 66.117 257.294 65.9792C257.328 65.8414 257.405 65.7363 257.525 65.6638C257.645 65.5914 257.774 65.5722 257.912 65.6062C258.05 65.6402 258.155 65.7172 258.227 65.8372C258.3 65.9572 258.319 66.0861 258.285 66.2239C258.251 66.3617 258.174 66.4669 258.054 66.5393C257.975 66.5873 257.889 66.6111 257.798 66.6107C257.708 66.6119 257.623 66.5915 257.542 66.5495C257.464 66.5082 257.401 66.447 257.352 66.3659ZM258.48 68.2336C258.407 68.1136 258.388 67.9847 258.422 67.8469C258.456 67.7091 258.533 67.604 258.653 67.5315C258.773 67.4591 258.902 67.4399 259.04 67.4739C259.178 67.5079 259.283 67.5849 259.355 67.7049C259.428 67.8249 259.447 67.9538 259.413 68.0916C259.379 68.2294 259.302 68.3346 259.182 68.407C259.102 68.455 259.017 68.4788 258.926 68.4784C258.836 68.4796 258.751 68.4592 258.67 68.4172C258.592 68.3759 258.529 68.3147 258.48 68.2336ZM259.608 70.1013C259.535 69.9813 259.516 69.8524 259.55 69.7146C259.584 69.5768 259.661 69.4717 259.781 69.3992C259.901 69.3268 260.03 69.3076 260.168 69.3416C260.305 69.3756 260.411 69.4526 260.483 69.5726C260.555 69.6926 260.575 69.8215 260.541 69.9593C260.507 70.0971 260.43 70.2022 260.31 70.2747C260.23 70.3227 260.145 70.3465 260.054 70.3461C259.964 70.3473 259.879 70.3269 259.798 70.2849C259.72 70.2436 259.657 70.1824 259.608 70.1013Z" fill="black"/>
<path d="M195.901 110.41L230.802 129.953C233.2 131.296 235.257 133.172 236.813 135.437C238.37 137.702 239.385 140.294 239.779 143.014C240.174 145.734 239.937 148.508 239.088 151.122C238.239 153.735 236.8 156.119 234.882 158.087C232.965 160.056 230.62 161.557 228.03 162.475C225.439 163.392 222.672 163.701 219.943 163.378C217.214 163.056 214.596 162.109 212.291 160.612C209.986 159.116 208.056 157.109 206.651 154.747L189.777 126.388L193.214 124.342L186.627 120.116L187.199 127.922L190.636 125.876L207.51 154.236C208.837 156.466 210.659 158.361 212.835 159.774C215.011 161.187 217.484 162.08 220.06 162.385C222.637 162.69 225.25 162.398 227.696 161.532C230.142 160.666 232.356 159.248 234.166 157.39C235.977 155.531 237.335 153.28 238.137 150.813C238.939 148.345 239.162 145.726 238.79 143.158C238.417 140.59 237.459 138.142 235.989 136.003C234.519 133.865 232.577 132.093 230.313 130.826L195.413 111.282L195.901 110.41Z" fill="#A5ABB6"/>
<path d="M229.806 169.944C229.576 169.767 229.319 169.71 229.036 169.773C228.753 169.836 228.488 169.993 228.243 170.246C228.063 170.43 227.936 170.621 227.86 170.817C227.787 171.012 227.764 171.199 227.793 171.379C227.824 171.556 227.906 171.71 228.039 171.839C228.15 171.948 228.271 172.014 228.403 172.04C228.534 172.062 228.668 172.057 228.802 172.024C228.936 171.99 229.065 171.944 229.188 171.885C229.311 171.824 229.42 171.765 229.515 171.708L230.042 171.395C230.176 171.314 230.333 171.232 230.513 171.148C230.694 171.063 230.887 171.001 231.093 170.964C231.299 170.923 231.508 170.929 231.72 170.979C231.932 171.03 232.136 171.151 232.331 171.341C232.557 171.56 232.703 171.818 232.769 172.113C232.837 172.407 232.815 172.718 232.703 173.048C232.592 173.376 232.381 173.7 232.069 174.02C231.778 174.319 231.479 174.53 231.169 174.655C230.862 174.778 230.561 174.818 230.267 174.775C229.974 174.731 229.706 174.606 229.462 174.4L229.97 173.879C230.14 174.019 230.322 174.093 230.515 174.101C230.708 174.107 230.899 174.063 231.088 173.969C231.277 173.873 231.452 173.742 231.613 173.576C231.801 173.384 231.938 173.18 232.025 172.966C232.111 172.751 232.141 172.544 232.115 172.344C232.089 172.144 231.999 171.97 231.847 171.822C231.709 171.687 231.559 171.616 231.397 171.608C231.234 171.601 231.065 171.634 230.888 171.708C230.71 171.781 230.53 171.871 230.347 171.978L229.701 172.348C229.29 172.582 228.905 172.71 228.547 172.731C228.188 172.752 227.868 172.625 227.587 172.352C227.354 172.124 227.212 171.863 227.161 171.568C227.11 171.27 227.141 170.967 227.254 170.658C227.366 170.348 227.552 170.059 227.811 169.793C228.072 169.525 228.353 169.333 228.653 169.218C228.952 169.101 229.243 169.063 229.527 169.102C229.813 169.139 230.065 169.257 230.281 169.455L229.806 169.944ZM230.595 167.049L234.763 171.109L234.271 171.613L230.103 167.554L230.595 167.049ZM231.581 166.037L232.167 165.435L237.007 167.388L237.054 167.339L234.974 162.553L235.561 161.951L239.729 166.01L239.269 166.483L236.102 163.398L236.063 163.439L237.961 167.826L237.517 168.282L233.081 166.5L233.042 166.54L236.208 169.625L235.748 170.097L231.581 166.037ZM237.038 160.434L241.206 164.494L240.714 164.999L236.547 160.939L237.038 160.434ZM242.192 163.482L238.024 159.422L238.516 158.918L242.236 162.541L244.123 160.604L244.57 161.04L242.192 163.482ZM245.754 159.824L245.239 160.354L242.562 154.764L243.069 154.243L248.728 156.772L248.212 157.301L243.491 155.129L243.459 155.162L245.754 159.824ZM244.317 158.043L246.394 155.911L246.842 156.347L244.764 158.479L244.317 158.043ZM249.36 156.123L245.192 152.063L246.564 150.655C246.881 150.329 247.197 150.116 247.512 150.016C247.825 149.914 248.127 149.906 248.418 149.994C248.708 150.081 248.976 150.244 249.222 150.483C249.467 150.722 249.636 150.985 249.728 151.27C249.82 151.556 249.82 151.855 249.726 152.168C249.631 152.48 249.426 152.798 249.112 153.121L248.002 154.26L247.546 153.816L248.64 152.693C248.857 152.47 248.999 152.259 249.066 152.06C249.134 151.86 249.138 151.671 249.078 151.494C249.018 151.314 248.905 151.142 248.738 150.98C248.571 150.817 248.395 150.706 248.209 150.647C248.024 150.588 247.83 150.594 247.629 150.665C247.426 150.735 247.215 150.882 246.996 151.107L246.132 151.994L249.852 155.618L249.36 156.123ZM249.399 152.337L252.27 153.135L251.699 153.721L248.844 152.907L249.399 152.337Z" fill="black"/>
</g>
<path d="M173.844 123.632C187.651 123.632 198.844 112.439 198.844 98.6316C198.844 84.8245 187.651 73.6316 173.844 73.6316C160.037 73.6316 148.844 84.8245 148.844 98.6316C148.844 112.439 160.037 123.632 173.844 123.632Z" fill="#F79767" stroke="#F36924" stroke-width="2"/>
<path d="M169.815 96.3588H170.695V101.174C170.695 101.671 170.578 102.115 170.344 102.506C170.112 102.894 169.784 103.201 169.36 103.426C168.936 103.648 168.439 103.759 167.869 103.759C167.298 103.759 166.801 103.648 166.377 103.426C165.953 103.201 165.624 102.894 165.39 102.506C165.158 102.115 165.042 101.671 165.042 101.174V96.3588H165.923V101.103C165.923 101.458 166.001 101.774 166.157 102.051C166.313 102.326 166.536 102.543 166.825 102.701C167.116 102.857 167.464 102.936 167.869 102.936C168.274 102.936 168.622 102.857 168.913 102.701C169.204 102.543 169.426 102.326 169.58 102.051C169.737 101.774 169.815 101.458 169.815 101.103V96.3588ZM176.204 99.3986L175.451 99.6117C175.404 99.4862 175.334 99.3643 175.242 99.2459C175.152 99.1252 175.029 99.0258 174.872 98.9476C174.716 98.8695 174.516 98.8304 174.272 98.8304C173.938 98.8304 173.66 98.9074 173.438 99.0613C173.218 99.2128 173.107 99.4057 173.107 99.6401C173.107 99.8484 173.183 100.013 173.335 100.134C173.486 100.254 173.723 100.355 174.045 100.436L174.855 100.634C175.342 100.753 175.706 100.934 175.945 101.178C176.184 101.419 176.304 101.731 176.304 102.112C176.304 102.424 176.214 102.704 176.034 102.95C175.856 103.196 175.607 103.39 175.288 103.532C174.968 103.674 174.597 103.745 174.173 103.745C173.616 103.745 173.156 103.624 172.791 103.383C172.427 103.142 172.196 102.789 172.099 102.325L172.894 102.126C172.97 102.419 173.113 102.64 173.324 102.786C173.537 102.933 173.815 103.007 174.159 103.007C174.549 103.007 174.859 102.924 175.089 102.758C175.321 102.59 175.437 102.389 175.437 102.154C175.437 101.965 175.371 101.806 175.238 101.678C175.106 101.548 174.902 101.451 174.627 101.387L173.718 101.174C173.219 101.056 172.852 100.872 172.617 100.624C172.385 100.373 172.269 100.059 172.269 99.6827C172.269 99.3749 172.356 99.1027 172.529 98.866C172.704 98.6292 172.942 98.4434 173.242 98.3084C173.545 98.1735 173.889 98.106 174.272 98.106C174.812 98.106 175.236 98.2244 175.544 98.4611C175.854 98.6979 176.074 99.0104 176.204 99.3986ZM179.852 103.745C179.326 103.745 178.873 103.629 178.492 103.397C178.113 103.163 177.821 102.836 177.615 102.417C177.411 101.996 177.309 101.506 177.309 100.947C177.309 100.388 177.411 99.8958 177.615 99.4696C177.821 99.0411 178.107 98.7073 178.474 98.4682C178.843 98.2267 179.274 98.106 179.767 98.106C180.051 98.106 180.331 98.1534 180.608 98.2481C180.885 98.3428 181.137 98.4966 181.365 98.7097C181.592 98.9204 181.773 99.1998 181.908 99.5478C182.043 99.8958 182.111 100.324 182.111 100.833V101.188H177.906V100.464H181.258C181.258 100.156 181.197 99.8816 181.074 99.6401C180.953 99.3986 180.78 99.208 180.555 99.0684C180.333 98.9287 180.07 98.8588 179.767 98.8588C179.433 98.8588 179.144 98.9417 178.9 99.1074C178.659 99.2708 178.473 99.4838 178.343 99.7466C178.213 100.009 178.147 100.291 178.147 100.592V101.075C178.147 101.487 178.218 101.836 178.361 102.122C178.505 102.406 178.705 102.623 178.961 102.772C179.216 102.919 179.513 102.992 179.852 102.992C180.072 102.992 180.271 102.962 180.449 102.9C180.628 102.836 180.784 102.741 180.914 102.616C181.044 102.488 181.145 102.329 181.216 102.14L182.025 102.367C181.94 102.642 181.797 102.883 181.596 103.092C181.394 103.298 181.146 103.459 180.85 103.575C180.554 103.688 180.221 103.745 179.852 103.745ZM183.385 103.632V98.177H184.195V99.0009H184.252C184.351 98.731 184.531 98.512 184.792 98.3439C185.052 98.1758 185.346 98.0918 185.672 98.0918C185.734 98.0918 185.811 98.093 185.903 98.0954C185.995 98.0977 186.065 98.1013 186.113 98.106V98.9583C186.084 98.9512 186.019 98.9405 185.917 98.9263C185.818 98.9097 185.713 98.9015 185.601 98.9015C185.336 98.9015 185.099 98.9571 184.891 99.0684C184.685 99.1773 184.522 99.3288 184.401 99.5229C184.283 99.7147 184.223 99.9337 184.223 100.18V103.632H183.385Z" fill="white"/>
</g>
<defs>
<filter id="filter0_d_1_3" x="123.401" y="2.59933" width="145.559" height="180.919" filterUnits="userSpaceOnUse" color-interpolation-filters="sRGB">
<feFlood flood-opacity="0" result="BackgroundImageFix"/>
<feColorMatrix in="SourceAlpha" type="matrix" values="0 0 0 0 0 0 0 0 0 0 0 0 0 0 0 0 0 0 127 0" result="hardAlpha"/>
<feOffset dy="4"/>
<feGaussianBlur stdDeviation="2"/>
<feComposite in2="hardAlpha" operator="out"/>
<feColorMatrix type="matrix" values="0 0 0 0 0 0 0 0 0 0 0 0 0 0 0 0 0 0 0.25 0"/>
<feBlend mode="normal" in2="BackgroundImageFix" result="effect1_dropShadow_1_3"/>
<feBlend mode="normal" in="SourceGraphic" in2="effect1_dropShadow_1_3" result="shape"/>
</filter>
<clipPath id="clip0_1_3">
<rect width="268.595" height="326.387" fill="white"/>
</clipPath>
</defs>
</svg>
